/* XPM */
static char *result[] = {
/* columns rows colors chars-per-pixel */
"64 64 177 2 ",
"   c #181425",
".  c #1D1824",
"X  c #1A1729",
"o  c #1C192C",
"O  c #1E1D31",
"+  c #211B24",
"@  c #231F2A",
"#  c #201F32",
"$  c #1F2034",
"%  c #272025",
"&  c #2C2423",
"*  c #24222E",
"=  c #302724",
"-  c #342A22",
";  c #3A2F21",
":  c #3C3224",
">  c #3D352F",
",  c #212136",
"<  c #2A2833",
"1  c #23253B",
"2  c #26283D",
"3  c #29293B",
"4  c #322E36",
"5  c #383337",
"6  c #3A3535",
"7  c #45371F",
"8  c #47391F",
"9  c #4A3B1F",
"0  c #413521",
"q  c #453924",
"w  c #493C23",
"e  c #40372C",
"r  c #453B2A",
"t  c #493D29",
"y  c #503F21",
"u  c #453E33",
"i  c #453F3A",
"p  c #46402F",
"a  c #524122",
"s  c #5B4722",
"d  c #5D4A26",
"f  c #524429",
"g  c #59492B",
"h  c #454235",
"j  c #4A4236",
"k  c #44423E",
"l  c #4D4439",
"z  c #6C552A",
"x  c #765C29",
"c  c #675330",
"v  c #765F35",
"b  c #7F6532",
"n  c #252941",
"m  c #2A2C45",
"M  c #2C2F4A",
"N  c #2F3045",
"B  c #2E324C",
"V  c #31344C",
"C  c #34384E",
"Z  c #383948",
"A  c #323550",
"S  c #363B53",
"D  c #393E56",
"F  c #393F58",
"G  c #423E40",
"H  c #3E4356",
"J  c #3E455D",
"K  c #3E4E5E",
"L  c #3C5167",
"P  c #395679",
"I  c #434444",
"U  c #47474A",
"Y  c #524D47",
"T  c #4A4B53",
"R  c #44485B",
"E  c #48515D",
"W  c #535050",
"Q  c #50535E",
"!  c #454C63",
"~  c #484F66",
"^  c #4A5067",
"/  c #4C526A",
"(  c #525563",
")  c #51576E",
"_  c #52586C",
"`  c #585D6D",
"'  c #445A70",
"]  c #545B71",
"[  c #585F74",
"{  c #5A6177",
"}  c #85662A",
"|  c #8E6C2C",
" . c #926F2C",
".. c #94712C",
"X. c #826733",
"o. c #876B34",
"O. c #8F7138",
"+. c #99793C",
"@. c #A17A31",
"#. c #AF8432",
"$. c #A5813C",
"%. c #B48833",
"&. c #BC8F38",
"*. c #C99737",
"=. c #DDA63B",
"-. c #E5AB3D",
";. c #A88441",
":. c #AF8A43",
">. c #B28C44",
",. c #BB9348",
"<. c #AC8D58",
"1. c #AF926A",
"2. c #B0926C",
"3. c #C59947",
"4. c #C59B4C",
"5. c #DFAC49",
"6. c #CBA150",
"7. c #D4A751",
"8. c #DBAD54",
"9. c #E6AD42",
"0. c #E8AF42",
"q. c #EAB144",
"w. c #E7B24C",
"e. c #EDB64C",
"r. c #F2B94F",
"t. c #E1AD51",
"y. c #E6B352",
"u. c #E8B452",
"i. c #E9B759",
"p. c #EDBA5A",
"a. c #F3BC52",
"s. c #F2BE5C",
"d. c #DFB061",
"f. c #DEB26B",
"g. c #E5B665",
"h. c #E8BE7A",
"j. c #F5C05D",
"k. c #FAC35C",
"l. c #FDC760",
"z. c #F3C26D",
"x. c #EDC175",
"c. c #EDC579",
"v. c #F4C475",
"b. c #FECE7F",
"n. c #365A84",
"m. c #345E93",
"M. c #2F65AA",
"N. c #3063A5",
"B. c #2B6BBC",
"V. c #2A6DC4",
"C. c #2772D4",
"Z. c #2576E0",
"A. c #2379EA",
"S. c #9B9384",
"D. c #AFA798",
"F. c #B0A99D",
"G. c #D8B78E",
"H. c #DBB98D",
"J. c #DCBA91",
"K. c #EFCB88",
"L. c #F6CB88",
"P. c #E9C59A",
"I. c #F3CC9C",
"U. c #F0D092",
"Y. c #D6C5A4",
"T. c #F3CDA0",
"R. c #FED6A5",
"E. c #FFD7A8",
"W. c #F4DAAA",
"Q. c #F5DEB4",
"!. c #D2CEC7",
"~. c #F7E5C2",
"^. c #FBF2E1",
"/. c #FCF6EA",
"(. c #F7F6F5",
"). c #FEFBF6",
"_. c #FFFFFF",
/* pixels */
"n n n n S J J J J J J S 7 9 9 9 9 9 9 9 9 9 9 9 9 9 9 9 9 9 9 9 9 9 9 9 9 9 9 9 9 9 9 9 9 9 9 9 9 9 9 9 9 9 9 9 : < , $ , , , , ",
"n n n n F J J J J J J U 0 9 9 9 9 9 9 9 9 9 9 9 9 9 9 9 9 w 9 9 9 9 9 9 9 9 9 9 9 9 9 9 9 9 9 9 9 9 9 9 9 9 9 9 : , , , , , , , ",
"n n n n S J J J J R H Z 7 9 9 a s s s s s s s s s s s s s s s s d d d d d d d d d d d d d d d d d d d d d d d d p < , < , , , , ",
"n n n n S R H k h u r r 9 9 a ..%.%.%.%.%.%.%.%.%.%.%.%.%.%.%.3.4.4.4.4.4.4.4.4.4.4.4.6.4.4.4.4.4.4.4.4.4.4.4.6.+.f : : $ , , , ",
"S S F S / ] ( l 9 9 9 9 9 9 s %.-.-.-.-.-.-.-.-.-.-.-.-.-.-.0.a.l.l.l.l.k.l.l.l.l.l.l.l.l.l.l.l.k.l.l.l.l.l.l.l.4.d 9 9 n 1 1 n ",
"J J J J ] { ` l 9 9 9 9 9 9 s %.-.-.-.-.-.-.-.-.-.-.-.-.-.-.-.k.l.l.l.l.l.l.l.l.l.l.l.l.l.l.l.k.l.l.l.l.l.l.l.l.4.d 9 9 n n n n ",
"J J J J ] { ` l 9 9 w 9 9 9 s %.-.-.-.-.-.-.-.-.-.-.-.-.-.-.-.a.l.l.l.l.l.l.l.l.l.l.k.k.l.l.k.k.l.k.k.k.l.k.l.l.4.d 8 8 n n n n ",
"J J J J E ^ Q U I I I k w 9 s %.-.-.-.-.-.-.-.-.-.-.-.-.-.-.-.r.k.k.k.l.l.l.l.l.l.l.k.k.k.k.k.k.k.k.k.k.k.k.l.l.4.d a : M M M M ",
"J J J J p p h m.V.V.V.N.k 9 s %.-.-.-.-.-.-.-.-.-.-.-.-.-.-.-.q.q.q.a.k.l.l.l.l.l.l.a.q.q.-.q.q.e.-.-.-.0.a.k.l.4.d 9 9 K J J J ",
"J J J J 9 9 h M.A.A.A.V.U 9 s %.-.-.-.-.-.-.-.-.-.-.-.-.-.-.-.-.-.-.a.l.l.l.l.l.l.k.e.-.-.-.-.-.-.-.-.-.-.r.k.l.4.d 9 9 J J J J ",
"J J K J 9 9 h M.A.A.A.V.I 9 s %.-.-.w.y.y.y.u.u.w.u.u.u.y.y.u.0.-.-.r.l.l.l.l.p.i.u.w.-.-.-.-.-.-.-.-.-.9.w.i.i.,.d 8 9 J J J J ",
"J J H K 9 9 h M.A.A.A.V.U 9 s %.-.9.K.~.~.~.~.~.~.~.~.~.~.~.Q.g.-.-.a.l.l.l.p.;.X.o.3.k.j.a.j.k.k.k.j.j.j.3.X.b z a 9 9 J J J J ",
"J J J J 9 9 p M.A.A.A.B.H 9 s %.-.9.W._._._._._._._._._._._./.c.-.-.a.k.l.l.i.b 9 a :.l.l.l.l.l.k.l.l.l.l.:.a a 9 9 9 9 J J J J ",
"J J J J 9 9 h N.Z.Z.Z.B.h 9 s %.-.w.W._._.).(.(.(.(.)._._._./.c.-.-.a.l.l.l.i.o.a s >.l.l.l.l.l.k.l.l.l.l.>.s a a 9 9 9 J J J J ",
"J J J J 9 9 p K P P P L p 9 s %.-.9.W._._.!.S.S.S.S.!._._._./.c.-.-.a.l.l.l.k.6.:.>.8.l.l.l.l.l.l.l.l.l.l.8.>.:.O.a 8 8 J J J J ",
"J J J J 9 9 9 9 9 9 9 9 9 9 s %.9.9.W._._.F.f 9 w f F._._._./.c.-.-.a.k.l.l.l.l.l.l.l.l.l.l.l.l.l.l.l.l.l.l.l.l.4.d 8 a J J J J ",
"J J J J w 9 9 9 9 9 9 9 9 9 g %.9.w.W._._.F.f 7 w f F._._._./.c.-.-.a.l.l.l.l.l.l.l.l.l.l.l.l.l.l.l.l.l.l.l.l.l.6.d 9 9 K J J J ",
"J J J J i i i w 9 9 9 p L P ' b $.$.Y._._.!.S.2.S.S.!._._._./.c.-.-.a.l.l.k.l.l.l.l.l.l.l.l.l.l.l.l.l.l.l.l.l.l.3.d 9 9 H J J J ",
"J J J J J J R r 9 9 9 I B.C.C.E 9 d F._._.(.(.(.(.(.)._._._./.c.-.-.a.k.l.l.l.l.l.l.l.l.l.l.l.l.l.l.l.l.l.l.l.l.6.d 9 9 J J J J ",
"J J J J ! ^ R j 9 9 9 U V.A.C.K 9 a F._._._._._._._._._._._./.c.-.-.a.l.l.l.l.l.l.l.l.l.l.l.l.l.l.l.l.l.l.l.l.l.3.d 9 9 J J J J ",
"J J J J ) { ` l 9 9 9 I V.A.C.K 8 f F._._._._._._._._._._.)./.c.-.-.j.k.l.l.l.l.l.l.l.l.l.l.l.l.l.l.l.l.l.l.l.l.4.d 9 9 J J J J ",
"J J J J ] { ` l 9 9 9 I V.A.C.K 9 f D.).(.).).).).).).).).).^.c.-.-.j.k.l.l.l.l.l.l.l.l.l.l.l.l.l.l.l.l.l.l.l.l.4.d 9 9 J J J J ",
"J J J J ] { ` l 9 9 a I V.A.C.K 9 a <.U.U.U.U.U.U.U.U.U.U.U.L.r.-.-.r.k.l.l.l.l.l.l.l.l.l.l.l.l.l.l.l.l.l.l.l.l.4.d 8 8 J J J J ",
"J J J J / ) ( j 8 8 w I V.A.C.K 9 y +.-.-.-.-.-.-.-.-.-.-.-.-.-.-.-.j.k.l.l.l.l.l.l.l.l.l.l.l.l.l.l.l.l.l.l.l.l.4.d 8 a J J J J ",
"J J J J A M V e w 9 9 I V.A.C.K 9 y @.-.-.-.-.-.-.-.-.-.-.-.-.-.-.-.k.k.k.k.k.k.l.l.l.l.l.l.k.l.l.l.l.l.l.l.k.k.4.d 9 9 K J J J ",
"J J J J B M N e 9 9 w u P m.n.I 9 y @.-.-.-.-.-.-.-.-.-.-.-.-.-.-.-.q.r.j.r.k.k.l.k.7.:.:.:.:.:.:.:.:.:.:.>.>.>.O.f 9 9 J J J J ",
"J J J J A M N e 9 9 9 w w t w w 9 y @.-.-.-.-.-.-.-.-.-.-.-.-.-.-.-.-.-.-.-.-.k.l.j.+.a a a a a a a a a a a a a y 9 9 9 J J J J ",
"J J J J V M N e 9 9 9 9 9 9 9 9 9 a @.-.-.-.-.-.-.-.-.-.-.-.-.-.-.-.-.-.-.-.-.k.l.j.+.w w 9 9 9 9 9 9 9 9 9 9 9 9 9 9 9 H J J J ",
"V A B B M M N 5 ; ; ; ; ; ; ; 7 9 y } %.%.*.-.-.-.-.-.-.-.-.-.-.-.-.j.-.-.-.k.k.l.k.,.X.X.z 9 9 9 9 r r : : ; ; : : > : 2 2 2 2 ",
"M M M M M M M 3 . + . . . . + ; 9 9 a s s ..=.-.-.-.-.-.-.-.-.e.l.k.k.k.k.k.k.k.l.k.p.i.i.$.a 9 9 w k H % . .   * , $ , , , , , ",
"M M M M M M M n             . ; 9 9 9 9 9 | =.-.-.-.-.-.-.-.-.j.l.l.l.l.l.l.k.k.l.l.l.l.l.:.a 9 9 9 G H o       O , , , , , , , ",
"1 1 1 1 1 1 1 #             . ; 9 9 9 9 9  .=.-.-.-.-.-.-.-.-.j.l.l.l.l.l.l.l.k.l.l.l.l.l.:.a 9 9 w Z J m 3 2 2 $ o O O , , O , ",
"                            . ; 9 9 9 9 8 | =.-.-.-.-.9.-.-.0.a.l.l.l.l.l.l.l.l.l.l.l.l.l.>.a w 9 w I J J J J J #     X # , , , ",
"                      . % & & - > 6 q 9 9 | =.-.-.-.t.8.d.d.g.c.b.b.b.b.b.b.b.b.b.b.b.b.b.<.a 9 9 w G J J J J J ,     X # , 1 # ",
"                      + 7 8 7 % 3 N 6 9 9 | =.-.-.9.f.G.G.G.J.I.R.R.R.R.R.R.R.R.R.R.R.R.R.2.a 9 9 w I J J J J J ,       O 1 # , ",
"    o   o o o o       . 0 9 7 + n M e 9 9 | =.-.-.9.f.G.G.G.J.T.E.E.E.E.E.E.E.R.E.E.E.E.R.2.a 9 9 w I R J J J J n # # # O O O O ",
"n n n n n n n ,       . 0 9 7 - 4 5 e 9 9 | =.-.-.9.f.G.G.G.J.T.E.E.E.E.E.E.E.E.E.E.E.E.E.2.a 9 9 w W [ ! J J J J J J C X       ",
"n n n n n n n ,       + 0 9 9 7 q q q 9 9 | =.-.-.9.f.G.G.G.J.T.E.E.E.E.E.E.E.E.E.E.E.E.E.2.a w w w W [ R J J J J J J A X X     ",
"n n n n n n 2 1       + 0 9 9 9 9 9 9 9 9 | =.-.-.5.f.G.G.G.J.T.E.E.E.E.E.E.E.E.E.E.E.E.E.2.a w 9 w W [ ! J J J J J J V         ",
"n n n n n m n ,       + 0 9 9 9 9 9 9 9 9 } =.-.-.9.f.G.G.G.J.T.E.E.E.E.E.E.E.E.E.E.E.E.E.2.a 9 9 w W [ J J J J J J J B         ",
"J H H J L ) ) J 2 , 2 < : 9 9 9 9 9 w 9 9 | =.-.-.5.d.G.G.G.J.T.E.E.E.E.E.E.E.E.E.E.E.E.E.2.a 9 w w W [ A A M A B B M n         ",
"J J J J ) { { / n n n 3 7 9 a X.+.+.+.+.+.&.-.-.-.9.f.G.G.G.J.T.E.E.E.E.E.E.E.E.E.E.E.E.E.2.f w w t W ] A M M M M M M n         ",
"J J J J ] { { ~ n n 2 3 : 9 s ,.s.s.s.s.s.e.-.-.-.9.f.G.G.G.J.T.E.E.E.E.E.E.E.E.E.E.E.E.E.2.a 9 9 w W [ A M M M M M M n         ",
"J J J J ] { { ~ n n n 3 7 9 d 4.k.l.l.l.l.r.9.-.-.-.f.G.G.G.J.T.E.E.E.E.E.E.E.E.E.E.E.E.E.2.a 9 9 w W ] A M M M M M M n         ",
"J J J J ! ~ ~ ~ ! ! ! T q w s 4.l.l.l.l.l.a.-.-.-.9.f.G.G.G.J.T.E.E.R.E.E.E.E.E.E.E.E.E.E.2.a w 9 w i D M M M M # # # , V N V V ",
"J J J J J J J ! { { { ( r w s 3.j.s.k.k.l.r.-.-.-.-.f.G.G.G.H.I.R.R.R.W.R.E.R.W.E.R.R.R.R.1.a 9 9 w 5 M M M M M #     # R J J J ",
"J J J J J J J ~ { { { ( r 9 a X.+.+.3.r.e.q.-.-.-.-.t.d.d.d.d.v.b.b.K.P.P.P.P.P.P.P.K.b.b.<.a 9 9 w 5 M M M M M O     # J J J J ",
"J J J J J J J ! { { { ( q 9 9 9 9 a @.-.-.-.-.-.-.-.-.-.-.-.-.k.l.l.c.H.H.H.G.G.G.G.x.l.l.:.a 9 9 w 5 M m n n m # # # 3 J J J J ",
"J J J J J J J ~ [ [ [ _ r w 9 9 9 y @.-.-.-.-.-.-.-.-.-.-.-.0.a.l.l.h.G.G.G.G.G.H.H.h.l.l.:.a 9 9 w 5 m X       A J J J J J J J ",
"J J J J J J J ~ { [ [ ) 5 6 e q 9 9 x @.@.*.-.-.-.-.-.q.e.e.r.k.l.l.z.h.h.h.h.h.h.h.z.l.l.:.a 9 9 q 5 m X       A J J J J J J J ",
"J J J J J J J ! { [ { ] B N N r 9 9 y y y  .=.-.-.-.r.k.l.j.l.l.l.l.l.z.l.l.l.l.k.l.l.l.l.:.a 9 9 w 5 m o       V J J J J J J J ",
"J J J J J L J ! [ [ [ ) B m m e 9 9 9 9 9 | =.-.-.-.j.k.l.l.l.l.l.l.l.l.l.l.l.l.l.l.l.l.l.:.a 9 9 q 5 m o X X o V J J J J J J J ",
"J J J J ] ] ] / A A A B o o + = ; ; 7 9 9 | =.-.-.-.r.l.k.l.l.7.4.4.4.4.4.4.4.u.a.a.k.l.l.:.a 9 9 8 = @ A D F F F J J J J J J J ",
"J J J J ] { { / M M M M         . + - 9 9 | =.-.-.-.a.l.l.l.i.O.d d d d d d z &.0.0.a.l.l.:.a 9 9 8 & X F G J J J J J J J J J J ",
"J J J J ] { { / M M M n             - 9 9 | =.-.-.-.a.l.l.l.p.b 9 w w w 9 9 s %.-.-.a.l.l.>.a 9 9 8 & X F J J J J J ! J J J J J ",
"J J J J ] [ { / M M M M           X - 9 9 | =.-.-.-.9.8.8.8.6.b 0 0 7 9 9 9 s %.-.9.5.8.8.+.w 0 0 0 + + F J J J J J J J J J J J ",
"J J J J F F F B O O # o         m Z 6 9 9 | =.-.-.=.@.z z z c Y Q T j 9 9 9 s %.-.=.+.z z w % @ < , O O F J J J J J J J J J J J ",
"J J J J A M M n                 C J u 9 9 | =.-.-.=.| 9 9 w t T { [ Y 9 9 9 s %.-.=.| 9 9 -   X , O , 1 J F J J J J J J J J J J ",
"J J J J A M M 1                 C R i 9 9 | =.-.-.=.| 9 9 9 w T { [ Y 9 9 9 s %.-.=.| 9 9 - . X , O 1 1 F J J J J J J J J J J J ",
"F F F F M 1 n 1 X X o X         C J i 9 9 | =.-.-.=.| 9 9 9 w U ] _ Y 8 9 9 s %.-.=.| 9 9 - . X , , O 1 A F F F J J J J J J J J ",
"M M M M o     o n n n 1         S J u 9 9 x #.%.%.#.v u u u u H J H k 9 9 9 y  .%.#.z : : %   X , , , , M M M M J J J J J J J J ",
"M M M M O     o n n n n         C H i w 9 y s s s s l J H H R H J J i 9 9 9 9 a s s ; . .     X , , O 1 m M M M F J J J J J J J ",
"M M M M o     o n n n 1         S J u 9 9 9 9 9 w w G J J J J J J J u 9 9 9 9 9 9 7 &         X , , , 1 m M M M F J J J J J J J ",
"M M M M O     o n n n 1         C J i 9 9 9 9 9 9 w I J J J J J J R j 9 9 9 9 9 9 7 &         X , , , , M M M M F J J J J J J J "
};
