/* XPM */
static char *result[] = {
/* columns rows colors chars-per-pixel */
"64 64 210 2 ",
"   c #181425",
".  c #1A1729",
"X  c #1C192C",
"o  c #1E1D32",
"O  c #221F33",
"+  c #231C38",
"@  c #1F2034",
"#  c #202136",
"$  c #24253B",
"%  c #29273D",
"&  c #30273F",
"*  c #2C2442",
"=  c #262941",
"-  c #2A2C45",
";  c #2C2F4A",
":  c #312740",
">  c #322B45",
",  c #332D49",
"<  c #382D49",
"1  c #2F3147",
"2  c #2D314A",
"3  c #32334C",
"4  c #3B334C",
"5  c #34384E",
"6  c #3C2E53",
"7  c #333352",
"8  c #3C3252",
"9  c #363C53",
"0  c #3A3C54",
"q  c #3F315D",
"w  c #3B3E58",
"e  c #3C2361",
"r  c #3E3167",
"t  c #40354A",
"y  c #422F5D",
"u  c #433958",
"i  c #442E66",
"p  c #433464",
"a  c #49376D",
"s  c #543E6B",
"d  c #4C3173",
"f  c #4C3277",
"g  c #473875",
"h  c #4C3D75",
"j  c #49397A",
"k  c #563F76",
"l  c #51327C",
"z  c #3A4057",
"x  c #3E455D",
"c  c #3F4460",
"v  c #42455E",
"b  c #4D435D",
"n  c #594B57",
"m  c #5D5257",
"M  c #635854",
"N  c #756B5B",
"B  c #746A5C",
"V  c #7B7258",
"C  c #474566",
"Z  c #464C64",
"A  c #4C4C64",
"S  c #564766",
"D  c #5B4D6E",
"F  c #4F5067",
"G  c #4C536A",
"H  c #52566D",
"J  c #5E516B",
"K  c #52596F",
"L  c #4B4471",
"P  c #514274",
"I  c #574970",
"U  c #5B4B75",
"Y  c #555C72",
"T  c #5A5D78",
"R  c #655866",
"E  c #6F5875",
"W  c #5A6177",
"Q  c #5B6178",
"!  c #6D6261",
"~  c #726367",
"^  c #6D607C",
"/  c #756170",
"(  c #886F71",
")  c #856878",
"_  c #572F8F",
"`  c #4F3782",
"'  c #4E3A81",
"]  c #543386",
"[  c #533D83",
"{  c #58358B",
"}  c #513888",
"|  c #5D3494",
" . c #5B3A95",
".. c #5E3499",
"X. c #61359D",
"o. c #603B99",
"O. c #6336A4",
"+. c #6539A4",
"@. c #6B3EA3",
"#. c #6736A9",
"$. c #6937AD",
"%. c #6B39AE",
"&. c #6E3BB1",
"*. c #723EB3",
"=. c #594289",
"-. c #6B4B86",
";. c #724F8C",
":. c #74528E",
">. c #674898",
",. c #744D94",
"<. c #744A99",
"1. c #6D5090",
"2. c #795497",
"3. c #6A6686",
"4. c #786A87",
"5. c #7B6794",
"6. c #7E7994",
"7. c #7548AB",
"8. c #7352A2",
"9. c #7A45B9",
"0. c #7B45BA",
"q. c #845F9F",
"w. c #81728E",
"e. c #887899",
"r. c #824FB5",
"t. c #824BBF",
"y. c #8958B8",
"u. c #905CBA",
"i. c #8A70A4",
"p. c #9261BF",
"a. c #854EC2",
"s. c #884FC3",
"d. c #8A51C5",
"f. c #9A55C6",
"g. c #9457CA",
"h. c #9C57C8",
"j. c #9459CC",
"k. c #9D5ACA",
"l. c #9B5ED1",
"z. c #A25ECC",
"x. c #A45FD0",
"c. c #9A66C7",
"v. c #9D60D3",
"b. c #A364CB",
"n. c #A46CCC",
"m. c #A96DCE",
"M. c #AB74CE",
"N. c #A463D5",
"B. c #A965D5",
"V. c #A769D7",
"C. c #A466D8",
"Z. c #AB67D8",
"A. c #AD6BDC",
"S. c #B26EDE",
"D. c #AE74D1",
"F. c #AE76D8",
"G. c #B179D3",
"H. c #B578DC",
"J. c #AF6FE0",
"K. c #B673E4",
"L. c #BA75E5",
"P. c #B878E4",
"I. c #BB7BE5",
"U. c #BD7AEA",
"Y. c #C17DED",
"T. c #8B829E",
"R. c #8B85A0",
"E. c #9689A5",
"W. c #B3A2BF",
"Q. c #AF84CB",
"!. c #B499C6",
"~. c #B985D7",
"^. c #BD8CDA",
"/. c #BE91D9",
"(. c #BCAAC8",
"). c #BF81E6",
"_. c #C295DC",
"`. c #C59ADE",
"'. c #C5ADD4",
"]. c #D1BCDC",
"[. c #C48EE5",
"{. c #C483ED",
"}. c #C99EE1",
"|. c #C995E9",
" X c #C782F2",
".X c #C986F2",
"XX c #CB8BF2",
"oX c #CE93F2",
"OX c #D199F2",
"+X c #CCA4E3",
"@X c #CFA9E4",
"#X c #CEA0E9",
"$X c #D3A9EB",
"%X c #D4B3E6",
"&X c #D5BEE0",
"*X c #D7B6E9",
"=X c #DCBDEB",
"-X c #D6A4F3",
";X c #D7A9F2",
":X c #D9ADF3",
">X c #DDB6F3",
",X c #DFBAF3",
"<X c #E1BDF3",
"1X c #D5C0DF",
"2X c #DDC7E9",
"3X c #E2C9ED",
"4X c #E4C6F3",
"5X c #E6CBF3",
"6X c #E8CFF4",
"7X c #EBD5F4",
/* pixels */
"= = = = 9 c c x x x x 9 .             O v v x x x x z & < < < < < < < 4 x x x v Y Q Q W 2               @ @ # # # # # # # # # # ",
"= = = = z x x x x x x z .             $ x x x x x x v & < < < < < < < 0 z v x x K W Q Q 1               @ @ # # # @ # # # # # # ",
"= = = = 9 x x x x x x z .             $ x x x x v z v & < < < < < < < 8 x x x c K W W W 1               @ # # # # # # # # # # # ",
"= = = = z x x x x x x z .             $ x x x x z v R w.w.w.:.:.;.;.;.D 0 0 0 x K W W W %               @ # # @ # @ # # # # # # ",
"9 9 z 9 G K K G x x x x 5 5 5 5 X     X % 1 1 4 b u e.2X2X].[.I.P.I.P.2.u 4 t u 3.W W W 0 = = $           X   X . . . X = = = $ ",
"x x x x K W Q K x x x x x x x x @     X z ^ T.T.e.q.Q.;X:XOXXX X X X{.u.] l } 2.5.3.W W w ; ; =                     . X = = = = ",
"x x x x K W W K x x x x x x x x @     X A W.3X3X:X{.{..X X X X X X X Xl.%.#.*.C.F.5.W T z , ; =                       . = = = = ",
"x x x x G K K G Z Z Z c x x x x % # # @ n '.7X7X>XXX X X X X X X X XY.l.&.#.9.V.F.3.K Y w 2 , =                 . X . @ 2 2 2 2 ",
"x x x x x x x Z W W W Y x x x x x x x 3 b (.5X5X;XXX X X X X XY.U.L.L.l.0.9.0.C.v.T x w 3 ; ; =                 # = = 2 x x x x ",
"x x x x x x x Z W W W W x x x x x x z 3 S G.OXOXoX X X X X X XK.g.a.a.j.C.A.C.j.7.a 4 8 3 ; ; =                 # = = 2 x x x x ",
"x x x x x x x Z W W W Y x x x x w w v S :.H. X X X X X X X X XK.d.0.t.j.J.J.C.t.X.d i y q ; , =                 = = = 2 x x x x ",
"x x x x x x x Z W W W W x x x z 4 4 b E.'.[. X X X X X X X X XY.K.K.K.l.t.0.9.&.#.X.....l < ; =         . . . . # ; = 2 x x x x ",
"x x x x x x x Z W W W Y x x x z < < A W.4XoX X X X X X X X X X X.X.X Xl.&.$.$.$.$.$.$.$.] < , =         $ = $ = 9 x x x x x x x ",
"x x x x x x x Z W W W Y c x v 0 < < S W.<XoX X X X X X X X X X X X XU.l.*.$.$.$.$.$.$.$.] 6 ; %         = = = = 9 x x x x x x x ",
"x x x x x x x A W Y F W 6.R.T.5.:.:.q./.-XXX X X X X X X X X XU.C.v.v.a.&.$.$.$.$.$.$.$.X.f d d e e $ # = = = = 9 x x x x x x x ",
"x x x x x x x A W K z ^ '.2X2X@X).I.). X.X X X X X X X X X X XS.t.&.*.&.$.$.$.$.$.$.$.$.#.O.O.O...| q ; 2 2 = = 9 x x x x x x x ",
"x x x x x x x Z W H u ^ 1X7X7X;X.X X X X X X X X X X X X X X XA.9.$.$.&.$.$.$.$.$.$.$.$.$.$.$.$.$...i < < > * = 9 c x x x x x x ",
"x x x x x x x Z W Y b 4.].6X5X;X.X X X X X X X X X X.XXXXX.X{.A.0.9.&.&.$.$.$.$.$.$.$.$.$.$.$.$.$.O.d 6 6 , = = 9 c x x x x x c ",
"Z x x x x x x Z W 3.E.!.#X-X-XoX X X X X X X X X X.XOX>X<X-XH.B.C.C.v.d.&.$.$.$.$.$.$.$.$.$.$.$.$.O.| ] ] i - = 9 x x x x x x x ",
"x x x x Z Z Z Z Z ^ (.>XXX{.Y. X X X X X X X X X.XXX<X7X7X=XG.B.{.XXXXV.0.9.*.&.$.$.$.$.$.$.$.$.$.$.$.$.$._ ; % 9 x x x x x x x ",
"x x x x Y W v 0 > S M.OX.X X X X X X X X X X X XOX<X5X7X7X=XG.m.$X,X,X|.K.J.C.t.$.$.$.$.$.$.$.$.$.$.$.$.$._ 6 $ 9 x x x x x x x ",
"x x x x K W b < < s n..X X X X X X X X X X X X X-X6X7X7X7X=XG.G.2X7X7X>X.X XL.d.$.$.$.$.$.$.$.$.$.$.$.$.$.{ 6 : 9 x x x x x x x ",
"x x x x K Y v < < s n. X X X X X X X X X X X X X-X6X7X7X7X3XG.G.2X7X6X:X XY.U.s.$.$.$.$.$.$.$.$.$.$.$.$.$.{ 6 * 9 x x x x x x x ",
"x x x x A F ^ ^ 4.i.G. X X X X X X X X XXXOXOX-X<X6X=X@X@X`.^.^.}.@X+X[.K.K.J.l.a.*.$.$.$.$.$.$.$.$.$.$.$.| d 6 3 9 w z x x x x ",
"x v v Z 0 u R.].&X%XoX X X X X X X X X XoX,X4X5X6X5X`.m.b.G.@X@XD.b.b.z.k.k.z.S.A.t.$.$.$.$.$.$.$.$.$.$.$.#.O.l < < > > c x x x ",
"x R.R.R.5.2.Q.>X>X-XXX X X X X X X XXXOX$X+X`.`.`.`._./.^._._.^.b.f.f.f.f.f.h.B.Z.l.g.g.a.&.$.$.$.$.$.$.$.$.#.| l f d d ' [ j x ",
"x 2X2X2X$X).)..XXX.X X X X X X X X XXX<X*XD.z.z.z.b.`.3X3X=XG.z.f.f.f.f.f.f.h.h.x.K.Y.Y.l.*.$.$.$.$.$.$.$.$.$.$.O.O.#.O.+.+.o.c ",
"Z 7X7X7X:X.X.X X X X X X X X X X X XXX<X*Xm.f.f.f.z._.7X7X=XG.f.f.f.f.f.f.f.f.f.z.Y. XY.l.*.$.$.$.$.$.$.$.$.$.$.$.$.$.$.$.%.+.x ",
"5 7X7X7X>XoXXXXXXXXXXXXXXXXXXXXXXXXXoX<X*XD.f.f.h.n.`.3X3X%XM.f.f.f.f.f.f.f.f.f.x.K.Y.Y.C.9.*.*.&.*.*.*.*.*.*.*.*.7.&.9.*.*.+.% ",
"2 7X7X7X4X>X>X>X>X>X>X>X,X>X>X>X>X<X<X5X*Xm.f.f.G.`._.~.~.G.z.f.f.f.f.f.f.f.f.f.h.x.B.Z.C.C.C.C.C.C.C.C.C.C.C.C.v.C.C.C.C.C.g.# ",
"2 5X3X4X4X4X4X4X4X4X4X4X4X4X4X4X4X4X4X4X@XG.m.m._.%X~.h.f.f.f.f.f.f.f.f.f.f.f.f.f.f.f.f.Z.Y.U.K.K.K.K.K.K.K.K.K.K.K.L.K.K.P.c.@ ",
"% OXOXOXOXOXOXOXOXOXOXOXOXOXOXOXOXOXoXH.~.@X*X%X_.G.b.f.f.f.f.f.f.f.f.f.f.f.f.f.f.f.f.f.B.Y.C.a.a.a.a.a.t.a.t.a.a.a.t.t.t.t.7.@ ",
".  X X X X X X X X X X X X X X X.X.XY.B.M.=X7X7X`.k.f.f.f.f.f.f.f.f.f.f.f.f.f.f.f.f.f.f.Z.Y.j.&.$.$.$.$.$.$.$.$.$.$.$.$.$.$...+ ",
".  X X X X X X X X X X X X X X XY.Y.Y.B.D.*X7X7X}.z.f.f.f.f.f.f.f.f.f.f.f.f.f.f.f.f.f.f.B.Y.l.&.$.$.$.$.$.$.$.$.$.$.$.&.$.$...# ",
".  X X X X X X X X X X X X X X X X XY.S.H._.@X+X~.h.f.f.f.f.f.f.f.f.f.f.f.f.f.f.k.N.B.B.B.N.a.$.$.$.$.$.$.$.$.@.<.<.<.@.$.$...o ",
"X  X X X X X X X X X X X X X X X X X XY.L.B.z.b.z.h.f.f.f.f.f.f.f.f.f.f.f.f.f.f.z.L.Y.Y.N.9.&.$.$.$.$.$.$.$.$.,.) ) ) <.$.$...o ",
"=  X X X.X X X X X X X X X X X X X X X XL.x.f.f.f.f.f.f.f.f.f.f.f.f.f.f.f.f.f.f.v.I. X.Xv.&.$.$.$.$.$.$.$.$.$.,.( ( ) ,.$.$.|   ",
"- I.I.I.I.I.Y. X X X X XY.Y.Y.U.Y.Y.Y.Y.K.x.z.f.h.f.f.f.f.f.f.f.f.f.f.f.f.f.f.h.v.F.U.U.v.7.#.#.#.$.$.$.$.$.$.,.) ( ) ,.O.#._   ",
"= 1.,.1.,.2.n. X X X XL.j.j.g.g.g.g.g.g.l.A.S.S.B.f.f.f.f.f.f.f.f.f.f.f.f.f.h.B.V.p.y.8.7.%.X. . . .O.$.$.%.$.-.S n S s e e e   ",
"= = - - - u 2.H.P.P.L.C.9.$.&.$.&.%.%.%.0.A.I.I.Z.z.h.f.f.f.f.f.f.f.f.f.z.k.z.S.c.>.=.' } O._ ' g `  .@.@.+.X.l t 4 < ;         ",
"z z z z Z A U -.-.;.r.0.&.$.$.$.$.$.$.$.*.a.s.d.l.S.B.f.f.f.f.f.f.f.f.x.J.K.A.u.>.=.j j ` } ` j j k E / / J a r , , , -         ",
"x c x x Y T b > < y | $.$.$.$.$.$.$.$.$.$.$.$.$.g.U.Z.h.f.f.f.f.f.f.f.S. X XP.8.j j j j j j j j j P R V ( M t , ; ; ; =         ",
"x x x x K W v < , y | $.$.$.$.$.$.$.$.$.$.$.$.$.g.U.S.f.f.f.f.f.f.f.f.Z.)..XI.8.j j j j j j g g j P M V V M t , ; ; ; =         ",
"x x x x K Y A 8 > q | %.$.$.$.$.$.$.$.$.$.$.$.$.a.C.B.N.B.x.h.h.z.B.N.B.n.n.c.>.j j j j j j P I I U E / / m < , ; ; ; -         ",
"x x x x Z Z Z v Z P  .%.$.$.$.$.$.$.$.$.$.$.$.$.&.0.v.U.U.L.b.B.L.Y.I.p.>.=.=.[ j j j j j L J B B ~ 1.o.+.[ 7 ; # O O # 3 3 1 3 ",
"x x x x x x v Z Q T >.=.] ] _ ..$.$.$.$.$.$.$.$.$.%.a.C.C.b.r.7.u.c.c.8.j j j j j I D D P j S M m m P { ` d 7 ; X     # x x x z ",
"x x x x x x x Z W T T I 6 < y l #.$.$.$.$.$.$.$.$.$.&.*.*.%. .[ [ =.[ j j j j j P ! B B R h p 4 t 4 8 7 7 7 2 ; O     # x x x x ",
"x x x v x x x Z W W W F < < < l #.$.$.$.$.$.$.$.$.$.$.$.%.+.} j j j j j j j j j I ! V V R P r 4 < , , ; = = = % # O # % x x x x ",
"x x x x x x x Z W W W Z 3 < < f X.O.O.#.$.$.$.$.$.$.$.$.$.O.} j j j j j j j j j P ! N N R h q < , , ; - .       5 x x x x x x x ",
"x x x x x x x G W W W G 3 , 3 y d d l X.$.$.$.$.$.$.$.$.#.+.} j j j j j j j j j h D J J S y 7 , , , ; - .       3 x x x x x x x ",
"x x x x x x x Z W W W K 2 ; ; , < < y { $.$.$.$.$.$.$.$.$.O.} j j j j j j j j j j j j j r < , ; ; ; ; - .       5 x x x x x x x ",
"x x x x x c c Z W Y W G 2 ; - > < > y | $.$.$.$.$.$.$.$.$.O.} j j j j j j j j j j j j j p < ; ; - - - - X . . . 5 x x x x x x x ",
"x x x x K W W Z 5 7 7 2 X . . + & & < l ..$.$.$.$.$.$.$.$.O.} j j j j j j j j h P a a a q , * # X . . o 7 w 9 z x x x x x x x x ",
"x c x x K W W G ; ; ; - .     . X X O 6 f ..$.$.$.$.$.$.$.O.} j j j j j j j h R R u 8 8 , % + o       . 9 x x x x x x x x x x x ",
"x x x x K W W G ; ; 2 - .           . & p X.$.$.$.$.$.$.$.O.] j j j j h I I D R M t - > = # # o       . w x x x x x x x x x x x ",
"x x x x K W W G ; ; 2 -               $ a o.$.$.$.$.$.$.$.O.} j j j j D B B ! D a - $ # # # # o       . w x x x x x x x x x x x ",
"x x x x w w w 2 o X o X         1 5 5 5 L  .$.$.$.$.$.$.$.O.} j j j g J V V B D r + X . . X . X o o o @ z x x x x x x x x x x x ",
"x x x x 7 2 - =                 5 x x x L  .#.#.#.#.#.$.$.O.} j j j j D B V B I r +           . @ @ @ $ z x x c x x x x x x x x ",
"x x x x 7 ; ; =                 9 x x x C j =.[ [ l | $.$.O.} g j j j S m m n 4 = o           . @ # # $ z x c c x x x x x x x x ",
"z z z z - = = $ X X X .         5 x x x x c C x w 6 l O.O...[ g g g g p < < < % . .           . # # @ # 9 z z z x x x x x x x x ",
"; ; ; ; X .   X = = = $         9 x x x x x x x w 0 p d d a i y u q q u b v F K @             . # # # # - ; ; ; x x x x x x x x ",
"; ; ; ; X     X = = = $         5 x x x x x x x C z 0 < < > > < < < < 0 W W W W @             . # # # # - ; ; ; z x x x x x x x ",
"; ; ; ; o     X = = = $         5 x x x x x x x v z 0 < < < < < < < < t Y W W Y @             . # # # # - 2 2 2 z x x x x x x x ",
"; ; ; ; X     X = = = =         9 x x x x x x x x x 8 < < < < < < < < v Y W W Y @             . # # # $ - ; ; 2 9 x x x x x x x "
};
