/* XPM */
static char *result[] = {
/* columns rows colors chars-per-pixel */
"64 64 204 2 ",
"   c #181425",
".  c #1E1927",
"X  c #1A1729",
"o  c #1B192C",
"O  c #1F1F33",
"+  c #202136",
"@  c #2D2734",
"#  c #23263B",
"$  c #2B293A",
"%  c #3A323A",
"&  c #443B3F",
"*  c #252941",
"=  c #2D2F43",
"-  c #2C3149",
";  c #323549",
":  c #373D55",
">  c #393E55",
",  c #483F41",
"<  c #3E455D",
"1  c #3C6E4F",
"2  c #4E474A",
"3  c #564A43",
"4  c #594C45",
"5  c #524A4A",
"6  c #5B4F49",
"7  c #4E5B45",
"8  c #5D524C",
"9  c #57584A",
"0  c #41465B",
"q  c #47495A",
"w  c #43495E",
"e  c #554E55",
"r  c #5A5459",
"t  c #60544F",
"y  c #625651",
"u  c #655A55",
"i  c #685B57",
"p  c #665D5A",
"a  c #695E5A",
"s  c #4C6448",
"d  c #54664C",
"f  c #54694B",
"g  c #4D6551",
"h  c #566C57",
"j  c #596C52",
"k  c #587457",
"l  c #5E785C",
"z  c #6B615D",
"x  c #666959",
"c  c #70655F",
"v  c #64755A",
"b  c #6B745A",
"n  c #454B61",
"m  c #4A4F63",
"M  c #4D5266",
"N  c #4D536A",
"B  c #565868",
"V  c #535A6F",
"C  c #535A70",
"Z  c #635D62",
"A  c #587163",
"S  c #5A6177",
"D  c #6E6562",
"F  c #6E6965",
"G  c #69646A",
"H  c #716663",
"J  c #736966",
"K  c #756C6B",
"L  c #796E6B",
"P  c #657C65",
"I  c #6B7C63",
"U  c #75706D",
"Y  c #7B716E",
"T  c #686874",
"R  c #736E74",
"E  c #7D7473",
"W  c #7B7679",
"Q  c #817776",
"!  c #827976",
"~  c #847C7C",
"^  c #897E7D",
"/  c #1E9757",
"(  c #1F9856",
")  c #1C955C",
"_  c #1F9859",
"`  c #3D8C4A",
"'  c #2C8556",
"]  c #348658",
"[  c #32865C",
"{  c #2B9554",
"}  c #239A56",
"|  c #299F53",
" . c #20975A",
".. c #219959",
"X. c #2B9F59",
"o. c #3D9352",
"O. c #3F9258",
"+. c #2EA34E",
"@. c #31A54E",
"#. c #35A94A",
"$. c #3BAB4D",
"%. c #2DA252",
"&. c #2EA158",
"*. c #31A451",
"=. c #31A359",
"-. c #138E65",
";. c #118D68",
":. c #169063",
">. c #189261",
",. c #398D61",
"<. c #3C9167",
"1. c #428C49",
"2. c #43934C",
"3. c #548855",
"4. c #459552",
"5. c #4A9954",
"6. c #4A9A54",
"7. c #559958",
"8. c #64875A",
"9. c #44AF57",
"0. c #44AF5A",
"q. c #54A35C",
"w. c #5AA65C",
"e. c #4BB456",
"r. c #46B05A",
"t. c #4CB45A",
"y. c #51B75B",
"u. c #53B95B",
"i. c #58BB5F",
"p. c #479A69",
"a. c #499E73",
"s. c #6D836A",
"d. c #768A69",
"f. c #679867",
"g. c #6D8577",
"h. c #798974",
"j. c #7D967C",
"k. c #7E9978",
"l. c #5BAA64",
"z. c #5EBE63",
"x. c #4EA172",
"c. c #63A865",
"v. c #75AB6A",
"b. c #60BF63",
"n. c #64B668",
"m. c #7AAA73",
"M. c #7DB674",
"N. c #62C063",
"B. c #69C467",
"V. c #67C368",
"C. c #6BC56A",
"Z. c #74C76E",
"A. c #73C96E",
"S. c #73C770",
"D. c #76CA70",
"F. c #7ECF75",
"G. c #7ED076",
"H. c #80896F",
"J. c #828C77",
"K. c #8A807E",
"L. c #81977C",
"P. c #86B576",
"I. c #8EB37D",
"U. c #8CBD7C",
"Y. c #81CD77",
"T. c #85CA79",
"R. c #80D077",
"E. c #82D178",
"W. c #7E7A81",
"Q. c #847F85",
"!. c #7A9582",
"~. c #878081",
"^. c #8B8483",
"/. c #8C8985",
"(. c #8B8589",
"). c #918786",
"_. c #918886",
"`. c #958C8C",
"'. c #988F8F",
"]. c #899B84",
"[. c #94918C",
"{. c #9A908F",
"}. c #8F8B93",
"|. c #928D93",
" X c #9B9291",
".X c #9E9998",
"XX c #A09696",
"oX c #A39A9A",
"OX c #8CA28C",
"+X c #8EA897",
"@X c #97A994",
"#X c #A1AA93",
"$X c #A29BA0",
"%X c #ACA3A3",
"&X c #AEA8A5",
"*X c #B0A7A7",
"=X c #B4ABAB",
"-X c #B4ACAB",
";X c #B5B8A9",
":X c #BAB0B0",
">X c #8FC682",
",X c #9CC98B",
"<X c #9DDE8A",
"1X c #A5D193",
/* pixels */
"* * * * : < < < < < < > X             # 0 0 < < < < < < n C *X:X:X:X:X:XT < < < V T S S -               O + + + + + + + + + + + ",
"* * * * : < < < < < < : X             # w w n n n n 0 0 > B XX%X%X%X%X%XT n < < V V S S -               O + + + + + + + + + + + ",
"* * * * : < < < < < < : X             * T W W Q.|.^.Z 5 3 p ^ `.|. X`.oX$XQ.Z 5 6 B S S =               O + + + + + + + + + + + ",
"* * * * : < < < < < < < X     X     . Z Q.^.^. X%XXXH 3 3 i Q ).).(.). X*X XJ 8 y a T C = .             O + + + + + + + + + + + ",
": : : : N C C N < < < < ; q (.W 8 5 p ~ ^.^.^. XoXXXJ 3 3 i Q ^ ^.^.^. X*X XJ y J Q ~ (.(.E r & .       X X X X X X X o * * # * ",
"< < < < C S S C < < < < m W.oX XQ L Y E W ^ ~.`.oXXX! a 6 i Q Q.^.(.^._.`.^ a i Y Q.(. X%XXXH 3 & .                   o * * * * ",
"< < < < C C S C < < 2 r T ^.'.'. XQ.K z H E ^ (.`. X X^ a i Q Q.^.^.^.! L a t i E ^./. X%X XH 4 3 , e p @             o * * * * ",
"< < < < N C C N q 2 4 y K ~.^.`.oX).a 6 y F E ~ ^.'.oXXXH y J ! ~ ~ ! L u 6 y H Q /. X X X~ i 6 6 c ! ).R $     o o o O - - - - ",
"< < < < < < < q r 3 3 t z Q ^ /.`.^ i 6 6 u H E ^  X%X.XJ 8 z U K U U F y y J Q ^ `.oX X! z 8 t H ! Q.`.%XW %   + * * - > < < < ",
"< < < < < < B T H i t 6 u J E ^ Q.~ L i t 6 u c E J.OXj.l f k l l A l j 9 z E /.'. X X^.K i u c Q ^ Q.{.%X%XZ @ + * * - n < < < ",
"< < < < < < T `.`.K.z 6 6 i J E ^ /.`.~ i 4 6 u G s.c.w.5.2.2.4.5.5.5.3.x J W '.oX X! L K Y E ! Q.).).{.%XXXL , = * * - < < < < ",
"< < < < q q R '.oX{.Y i z H Z J ~ '.oX`.v d s j I f.w.y.y.y.u.u.y.y.y.c.f.h.h.j.OXJ.z y K ^ ^.(.'.{.{.{.XXQ.J z Z > - - < < < < ",
"< < < < 5 p Q _.'.).^ ^ _.K.c z W ).'.j.7.1.1.7.m.T.T.Y.G.G.G.G.G.G.G.T.T.M.c.q.l.7.j 8 z E J.`.XXoX*X{.! L L ^.oX}.M < < < < < ",
"< < < < 5 y L ~ ~ ~ ^.'.%X.XI k P J.].m.n.u.u.b.D.Y.E.Y.E.G.G.E.E.G.G.E.Y.Z.z.y.y.w.8.v v P /. XXXXXXX).J H Q `.$X%X|.N < < < < ",
"< < < < 5 y z K K E Q.'.%X@X7.4.5.c.P.>XY.Y.E.A.z.y.u.u.u.u.y.t.y.u.u.u.y.b.Z.F.T.F.P.m.w.f.OX[.Q J H H L ! Q.).'.oX%X|.< < < < ",
"< < 0 2 3 8 y p p D Y )._.L.q.$.e.z.D.Y.E.E.F.C.r.@.*.+.+.+.+.+.+.+.%.+.%.r.C.F.E.E.Y.Z.n.n.OXk.l d 8 a Q Q.^.^.^._.|.Q.< < < < ",
"< < 2 4 4 4 8 8 t u H K J v 7.e.B.A.N.y.y.u.u.r.&.} } ..( ..( ( } _ } _ ..=.e.y.u.y.y.z.A.S.n.q.2.k f F ! ^.^.^.^.! Y Z < < < < ",
"< 0 5 3 3 8 y p z H z z b 8.w.b.A.B.r.%.+.@.+.%.} ) ..} ( ( / / ( } ........%.+.@.%.%.r.V.A.V.i.u.q.8.U Q.^.^.~.W J y 5 < < < < ",
"< 0 3 3 4 y J ^ `.K.H x d.T.Y.Z.b.r.X...} ( ( } | +.+.+.+.+.+.| +.+.%.+.+.%.} } _ } } &.r.z.D.G.Y.M.s.E ~ ^.^.E H t 6 5 < < < < ",
"< 0 3 3 8 z E `.oX X! d.M.R.F.B.r.| .._ _ ( _ &.0.i.i.i.u.u.y.z.u.u.u.u.y.0.&.( _ _ ) _ X.r.V.G.Y.M.k.h.~.! E H t 6 8 z T w < < ",
"< q 5 6 u K ~ /.`. X X].c.y.y.r.X.} ) ..%.+.+.r.C.E.E.E.E.E.E.E.E.E.E.E.E.C.r.+.+.%.) / _ &.r.y.u.n.P.I.h.D a y 6 y H ^. X(.n < ",
"< < 5 6 p K Q ~ ~.'.oXOXl.#.+.| .._ } &.r.y.u.b.A.F.F.F.F.F.F.G.G.F.F.G.F.A.b.i.y.r.%.) _ _ &.+.#.e.C.v.I p i u u H Q `.&X$Xn < ",
"< < 5 8 z G K E ^ _.`.j.6.+.} ( _ ..| r.C.G.G.D.b.u.y.y.y.y.y.y.y.y.y.y.y.N.D.G.G.V.$.&._ _ ( } +.$.e.7.j a K E E ! ^. X%X.Xn < ",
"w B p i p p p D L E E s.4.} } ) ..&.9.z.A.G.G.C.t.#.#.*.%.%.%.%.%.&.%.#.#.t.C.G.G.D.z.r.&...} } +.+.#.1.d z E ^./.^.(.).`.(.n < ",
"G W ! K i t 8 t y i u h ] } | %.*.0.V.A.b.i.y.e.$.+.} ( _ _ _ _ ( ....| +.#.e.i.u.b.A.V.r.%.%.} ( %.+.o.h F ~ ^./.^.^.~ E Z q 0 ",
"Q.^ ^.! D y 6 3 3 3 7 1 ' ..+.$.e.z.D.C.e.#.+.+.%.| _ ) ) ) _ ) ) ) ) _ | +.%.#.#.e.V.A.b.e.$.+.( / +.o.k I E Q Q E E Y L K T W.",
"Y E ^ ^ Q H y 4 4 7 1 ' ) ..*.e.C.Z.N.t.$.+.| ) ) } ) ) ) ) ) ) ) ) ) _ } ) ) | +.$.t.V.A.C.e.%.( ( _ { o.3.I F p p i K Q..X%X:X",
"p F E Q.^.~ L H z A [ / ..X.0.z.A.V.9.@.+.| } ) ) ) } } } } } ( } } ( _ ( ) ) ) } %.%.$.C.D.b.r.&..._ _ +.o.k p i u i L  X*X:X:X",
"8 u F E Q._.`. X X!.p.) | 0.V.A.N.t.&.) ....} ) ) ..| %.#.%.+.+.%.#.%.| ..) ) _ ) _ } %.r.N.A.V.r.&.( )  .' g p H Y Y ~ ).oX*X-X",
"3 8 u H E /.oX=X-X+Xx.X.0.z.S.C.e.+...>.) ) ) / } =.0.y.y.y.y.y.t.u.t.0.&...} ) ) ) ) } #.e.C.D.z.r.&.( ..' g z Q ^.^.^.^.`.'.XX",
"3 4 8 r H E ).oX&X@Xz.r.C.D.N.t.$.+.( ) ) ) ) } | r.C.E.E.G.E.G.E.E.F.C.0.&...) ) ) ) ( +.$.e.N.D.V.r.&.) [ h J Q ^.^.^.^ ^ L H ",
"3 3 3 8 p D L ^ [.!.l.t.F.E.i.#.+.| ( ) ) ) } &.0.b.D.E.E.E.E.E.E.E.E.D.z.r.&...) ) ) / %.+.#.u.G.F.y.+.) [ A L ~ ^.^.Q.Q H t 3 ",
"4 3 4 4 6 t i a c v 2.u.Y.E.y.+.} ..) ) ) ( %.9.V.A.N.y.y.y.y.y.y.y.y.N.D.C.r.&...) ) ) } } +.y.G.F.u.%.} [ A R ~ ^.^.! H t 8 3 ",
"8 y y y i a c a t f 7.b.A.B.e.+...) ) ) } &.0.N.A.C.e.#.#.%.#.*.+.+.#.e.C.A.z.0.&._ ) ) ) } #.9.C.D.b.0.&.[ h D K E E Y J J J H ",
"p H L Q Q ^ `.^ z b v.D.z.e.$.+...) ) ..| r.B.A.b.e.$.+...( } } } } +.$.e.N.D.V.9.%._ ) ) } +.$.e.z.D.V.r.` d t y u u J K.XXXX X",
"p J ! ^ Q._.oX{.! H.U.R.u.#.+.| ..) ..&.9.z.A.B.t.#.+.| ) >.>.>.>._ %.+.#.y.C.S.z.0.&._ ) ) | +.#.u.G.G.e.2.f 9 u u i L {.%X:X:X",
"t a Q ^.).).'.'.XX#X,XE.t.@.} .._ ..| 9.B.A.z.e.$.+.| _ :.;.:.>.;.>._ } +.$.e.b.A.C.9.| .._ ..} +.u.E.G.y.4.k z J Q Q ! _.oX*X:X",
"4 y K ~ Q.Q.).'.#X;X1XE.y.+...) ) ..+.i.R.F.u.$.+.| ) >.;.-.>. .:.;.>._ } +.$.y.F.G.y.#. .) ) ..%.u.E.G.y.4.l U ! Q.^.Q.).{.&X:X",
"3 t D E ! ^ Q.{.#X;X1XE.y.+...>.>...#.u.E.R.y.%.} ) -.;.-. .X.X.) >.;.>._ } +.y.F.R.i.+...) ) _ +.u.G.G.y.6.l U ^ ^./.^./.`.%X-X",
"3 8 Z J Q Q ^ Q.'.#X,XE.y.@...>.>...*.y.E.G.y.%._ ) ;.>.>.=.t.r.&.) ;.;.) _ +.u.G.E.u.%...) ) ..%.y.E.G.y.4.k c Q ~ ~ ! Q ~ _.{.",
"4 6 p D a p J K c H.T.E.i.#...) ) ..+.y.Y.F.y.%._ ) >.) ..0.C.V.r.| ) >.)  .%.y.E.R.u.+..._ >...+.y.G.G.u.o.g p H K L J Z z c J ",
"4 6 u y 6 6 y y 8 b I.T.y.#...) >.} | z.E.F.y.%._ ) >.) } r.C.C.r.| ) >.>...%.y.F.R.u.+...) ) ..+.y.E.G.u.4.f p i p i Z H J J H ",
"4 6 6 8 4 4 8 6 4 b I.E.u.@.} / ..} *.u.E.F.u.+.( ) ;.>. .=.r.r.=.) ;.-.>._ +.y.G.E.u.+..._ ) ..+.u.E.G.u.6.8.F i 8 t c ^ {.{.{.",
"y i u a z H H p t b P.E.u.#.} / ....@.u.E.F.y.#.| ) -.;.:.) | } ) :.;.>...} +.y.F.E.u.+...) ) _ +.u.E.G.e.q.h.W H y i K {.*X:X:X",
"Q Y Q ^ `.{.XX^ c b P.E.u.+./ ) ) ..+.u.E.F.i.#.%.| ) -.;.:.) ) :.;.-.) | +.#.u.F.F.y.+..._ ) ( %.u.E.G.y.q.h.~.Q Y Q ^ `.XX*X:X",
"Q ~ ^ `.oX%X%X`.! H.U.E.u.+.} / ) / | t.C.D.z.e.$.#.} _ ;.;.>.>.;.:.) } +.$.e.N.A.B.0.| .._ ( } +.y.E.G.i.6.s.K.Q.^ ^ Q.! ^ _.XX",
"K E Q.).'.'. X'.{.#X,XE.u.#.+.| } ) ..=.0.z.Z.V.t.#.+.| ) >.) >.>._ %.+.#.e.B.A.b.9.&.} ) } | +.#.u.E.G.y.4.P K L Q ^ ! c a c J ",
"D K ! ^ ).Q.! ^ [. XT.A.N.e.$.+...) >. .X.r.V.S.N.9.$.+.} } _ ( ..} +.$.e.b.A.B.0.| } ) ) } +.$.e.b.A.C.0.o.h a a c J J y t z H ",
"D F K E ! Q c a c I w.N.A.C.e.+...) >.) ( &.r.N.D.C.e.#.%.+.+.%.%.+.#.e.C.A.z.0.&.} ) ) ) } +.e.C.A.b.9.&.' g 8 8 y u t t i ^ {.",
"p p D K Q H t 3 3 d 2.y.G.E.y.+.} _ ) ) ) } &.r.C.A.N.u.u.u.u.u.y.u.y.N.A.V.r.&.( ) ) _ ) ..#.y.G.G.y.@.( [ h i u z c z t i K.{.",
"y y p D i y 4 3 3 s ` u.E.E.u.#.+.| _ ) ) ) ( &.r.z.D.G.E.F.E.G.E.E.G.A.z.0.&...( ) ) } | +.#.y.G.G.y.+._ ,.P E E ^ `.K.z t i J ",
"4 6 y y 4 t z H c v 2.9.C.A.N.e.$.+...) ) ) ) } %.r.C.G.G.G.G.G.G.G.F.V.0.&.} ) >.) ) } +.$.e.N.D.C.$.%._ <.g.~./.`.XX XQ z 8 4 ",
"3 4 8 6 6 a Q.XX.Xk.p.&.$.z.S.C.e.+...) ) ) _ _ ..&.r.u.u.y.y.y.y.y.y.r.&....._ ) ) ) } #.e.C.D.z.0.&..._ <.g.~.^.).`.{.{.K.a 3 ",
"3 6 y y i L `.*X=X+Xa.( &.r.V.A.N.r.&.......) ) ) ..%.%.%.%.%.&.+.*.%.%...) ) ) ......&.r.N.A.V.r.&..._ _ <.g.~.Q.^./.`.oX X^ J ",
"3 y H E W ~ `.oX&X+Xa.) _ &.r.z.D.C.r.%.+.| _ )  .) ..} } } ( _ } ( } _ _ ) ) ) } +.*.9.C.D.b.r.&._ _ ..%.O.8.E ^ ^.K.).'. X{. X",
"3 y E ^.^.^.^. X.XOXx._ ) ..*.y.C.A.z.e.#.+.} _ ......) ) ) ) ) ) ) ) _ ....} } +.$.e.N.D.C.e.*.) _ _ &.r.7.A F Y Q.).^ ! ! _.{.",
"3 u E ^.^.^.K.)./.k.q.%./ ( +.$.y.N.A.C.e.#.#.%.%.&._ ) ) ) / ( ) ) ) ) | +.%.+.#.e.C.S.N.t.$.+.( ( %.r.B.v.v u H E ~ ~ J a H J ",
"3 t H E Y Y E E E s.4.+.( } %.%.*.r.C.A.z.i.u.e.#.+.} _ ( ( ( ( ( _ } } +.$.e.y.i.N.A.V.r.*.%.| } | +.u.E.P.b 8 y z L L L H H H ",
"6 8 u u i i i i r j 2.$.+.%._ _ ..&.r.z.C.G.G.C.e.#.@.%.@.@.#.+.&.&.+.#.#.e.C.E.G.S.z.r.&.....} %.+.#.u.E.P.b 4 6 y u K ).{.XX'.",
"u u u u y a z i 8 f 6.e.$.+.} ( _ _ %.r.C.E.G.A.z.u.e.y.y.y.u.u.y.y.y.e.y.N.A.E.G.C.r.%..._ ..} +.$.e.N.D.v.v r y y i L '.*X-X:X",
"Y E E K Y ~ _.! i j v.C.e.$.+.%._ _ _ &.r.t.y.z.A.G.G.G.G.G.G.G.G.G.G.G.G.A.N.i.t.r.&...( ) %.%.#.e.C.A.z.q.l D J Y E ~ ).oX*X:X",
"! ! W ^ K.`.oX).c v v.A.N.u.y.$.%./ _ _ %.+.+.9.C.G.E.G.R.R.R.R.R.R.G.R.E.V.9.+.+.%.) _ _ &.r.y.e.N.D.C.0.o.k D E ^ Q.^.).).'. X",
"R K K E K./._.! c f 7.b.D.E.G.C.9.&./ ) ) / ( &.r.u.u.u.u.u.u.u.u.u.u.u.y.0.| ...._ _ ..&.$.C.E.E.D.b.$.X.' g u H E ^ ^.Q.! L H ",
"D D F K K._.K.Q i s 1.u.E.<X<XE.y.+.( ) >.) ) _ %.#.#.$.#.#.#.#.#.#.#.#.#.%.} ) ) ) ) ..*.u.E.<X<XE.u.%._ ' s 8 i K ~ ^.^.Q i 3 "
};
