/* XPM */
static char *result[] = {
/* columns rows colors chars-per-pixel */
"64 64 252 2 ",
"   c #252941",
".  c #373D55",
"X  c #3E455D",
"o  c #393E55",
"O  c #1A1729",
"+  c #181425",
"@  c #252538",
"#  c #3F465E",
"$  c #555C72",
"%  c #5A6177",
"&  c #2F2F42",
"*  c #181526",
"=  c #1F1F33",
"-  c #202136",
";  c #4B5269",
":  c #525970",
">  c #4C536A",
",  c #3C435B",
"<  c #34394F",
"1  c #34384E",
"2  c #1E1C2E",
"3  c #1D1B2E",
"4  c #282A40",
"5  c #2B2E44",
"6  c #3D445B",
"7  c #393C53",
"8  c #272840",
"9  c #23233A",
"0  c #191728",
"q  c #1C1B2F",
"w  c #23273E",
"e  c #52596F",
"r  c #201F32",
"t  c #1A182B",
"y  c #25273C",
"u  c #3D435B",
"i  c #3C405A",
"p  c #2C2F4A",
"a  c #272941",
"s  c #1B192C",
"d  c #4E556C",
"f  c #464D64",
"g  c #454C63",
"h  c #292A3E",
"j  c #232235",
"k  c #212033",
"l  c #1D1D31",
"z  c #212236",
"x  c #343950",
"c  c #353A51",
"v  c #3C435A",
"b  c #393D57",
"n  c #1A182A",
"m  c #1C1A2D",
"M  c #202034",
"N  c #2C3149",
"B  c #565D73",
"V  c #40475F",
"C  c #313349",
"Z  c #191628",
"A  c #1F2035",
"S  c #383E55",
"D  c #323650",
"F  c #212339",
"G  c #2B3048",
"H  c #191527",
"J  c #1E1E33",
"K  c #1F1F34",
"L  c #3A4057",
"P  c #31354E",
"I  c #24263C",
"U  c #282D45",
"Y  c #2E334B",
"T  c #202035",
"R  c #222339",
"E  c #282A44",
"W  c #191526",
"Q  c #22243B",
"!  c #24273F",
"~  c #353B53",
"^  c #1E1E32",
"/  c #272A43",
"(  c #23263D",
")  c #363D55",
"_  c #545B71",
"`  c #333751",
"'  c #30344E",
"]  c #27283F",
"[  c #1B192B",
"{  c #1B182B",
"}  c #545A71",
"|  c #2F324D",
" . c #25253D",
".. c #454C64",
"X. c #484F66",
"o. c #494F67",
"O. c #454B63",
"+. c #2E314C",
"@. c #262740",
"#. c #222237",
"$. c #1E1D30",
"%. c #1C1A2B",
"&. c #212439",
"*. c #363C53",
"=. c #4C526A",
"-. c #2A2E46",
";. c #3E445C",
":. c #4D536A",
">. c #52586F",
",. c #474C64",
"<. c #2B2E49",
"1. c #1D1B2F",
"2. c #1E1D31",
"3. c #292D45",
"4. c #424961",
"5. c #1D1A2C",
"6. c #31364D",
"7. c #393F56",
"8. c #3A4058",
"9. c #2D304B",
"0. c #292B45",
"q. c #21233A",
"w. c #242840",
"e. c #3D445C",
"r. c #585F75",
"t. c #596076",
"y. c #202237",
"u. c #212237",
"i. c #282B41",
"p. c #30344F",
"a. c #191627",
"s. c #22243A",
"d. c #434A62",
"f. c #353A50",
"g. c #2C2E49",
"h. c #292B44",
"j. c #272A40",
"k. c #2F334D",
"l. c #272841",
"z. c #1C192C",
"x. c #444B62",
"c. c #51586F",
"v. c #545B72",
"b. c #3C425A",
"n. c #363B52",
"m. c #34384F",
"M. c #1E1D32",
"N. c #212238",
"B. c #26283D",
"V. c #26273F",
"C. c #3B4159",
"Z. c #24243B",
"A. c #201F34",
"S. c #24263D",
"D. c #282B44",
"F. c #2B2F48",
"G. c #495067",
"H. c #474E65",
"J. c #2B2C40",
"K. c #28283C",
"L. c #1D1D30",
"P. c #50576D",
"I. c #535A71",
"U. c #191629",
"Y. c #50576E",
"T. c #434A61",
"R. c #28293D",
"E. c #1F1D30",
"W. c #252940",
"Q. c #212338",
"!. c #444B63",
"~. c #575E74",
"^. c #414860",
"/. c #33384E",
"(. c #424960",
"). c #262A42",
"_. c #262B42",
"`. c #272B43",
"'. c #22253A",
"]. c #181426",
"[. c #2E324C",
"{. c #41485F",
"}. c #33374D",
"|. c #4B5168",
" X c #51576E",
".X c #43495F",
"XX c #23253C",
"oX c #1F2034",
"OX c #26293F",
"+X c #343852",
"@X c #292A42",
"#X c #4A5067",
"$X c #323550",
"%X c #474D64",
"&X c #42485E",
"*X c #1C1B2E",
"=X c #2A2D43",
"-X c #495068",
";X c #3B3F58",
":X c #222239",
">X c #1F1D32",
",X c #232338",
"<X c #4F556C",
"1X c #1E1C30",
"2X c #222033",
"3X c #202135",
"4X c #32374E",
"5X c #373D54",
"6X c #474D65",
"7X c #282942",
"8X c #222236",
"9X c #28283D",
"0X c #2A2D47",
"qX c #1A172A",
"wX c #33364C",
"eX c #464D65",
"rX c #2D304A",
"tX c #1C192B",
"yX c #23253A",
"uX c #24253A",
"iX c #222338",
"pX c #2B2E48",
"aX c #2B2D48",
"sX c #4F566D",
"dX c #4B5169",
"fX c #2F314B",
"gX c #232335",
"hX c #4D5369",
"jX c #52586E",
"kX c #3D4157",
"lX c #35394F",
"zX c #42465C",
"xX c #3A3F58",
"cX c #31334B",
"vX c #1D1A2E",
"bX c #2D2E43",
"nX c #494E64",
"mX c #3F4358",
"MX c #393F57",
"NX c #4D5267",
"BX c #393F58",
"VX c #2B2E46",
"CX c #4A5065",
"ZX c #29283B",
"AX c #29283A",
"SX c #282739",
"DX c #1A1728",
"FX c #363B53",
"GX c #575E73",
"HX c #232132",
"JX c #393E57",
"KX c white",
/* pixels */
"        . X X X X X X o O + + + + + + @ X X X X X X X X X X X X X X X X X X X # $ % % % & + + + + + + * = - - - - - - - - - - - ",
"        . X X X X X X o O + + + + + + @ X X X X X X X X X X X X X X X X X X X # $ % % % & + + + + + + * = - - - - - - - - - - - ",
"        . X X X X X X o O + + + + + + @ X X X X X X X X X X X X X X X X X X X # $ % % % & + + + + + + * = - - - - - - - - - - - ",
"        . X X X X X X o O + + + + + + @ X X X X X X X X X X X X X X X X X X X # $ % % % & + + + + + + * = - - - - - - - - - - - ",
". . . . ; : : > X X X , < 1 1 1 2 + + 3 4 4 4 5 6 X X X X X X X X X X X X X X # $ % % % 7 8 8 9 + + + + 0 O O O O O O q w w w w ",
"X X X X : % % e X X X X X X X X r + + t - - - y u X X X X X X X X X X X X X X # $ % % % i p p a + + + + + + + + + + + s         ",
"X X X X : % % e X X X X X X X X r + + t - - - y u X X X X X X X X X X X X X X # $ % % % i p p a + + + + + + + + + + + s         ",
"X X X X > e e d f f f g X X X X h j j k l l l z x c c c v X X X X X X X X X X X d e e e b p p a + + + + + + + + n m m M N N N N ",
"X X X X X X X f % % % B V X X X X X X C + + + Z A - - - S X X X X X X X X X X X X X X X D p p a + + + + + + + + F     G X X X X ",
"X X X X X X X f % % % B V X X X X X X C + + + Z A - - - S X X X X X X X X X X X X X X X D p p a + + + + + + + + F     G X X X X ",
"X X X X X X X f % % % B V X X X X X X C + + + Z A - - - S X X X X X X X X X X X X X X X D p p a + + + + + + + + F     G X X X X ",
"X X X X X X X f % % % B V X X X X X X C + + + H J = = K x L L L L L L L L L L L L L L L P p p a + + + + Z O O O I U U Y X X X X ",
"X X X X X X X f % % % B V X X X X X X C + + + + * * * * T R R R R R R R R R R R R R R R E p p a + + + W Q ! ! ! ~ , , , X X X X ",
"X X X X X X X f % % % B V X X X X X X C + + + + + + + + ^ - - - - - - - - - - - - - - - / p p a + + + H (       ) X X X X X X X ",
"X X X X X X X f % % % B V X X X X X X C + + + + + + + + ^ - - - - - - - - - - - - - - - / p p a + + + H (       ) X X X X X X X ",
"X X X X X X X f % % % B V X X X X X X C + + + + + + + + ^ - - - - - - - - - - - - - - - / p p a + + + H (       ) X X X X X X X ",
"X X X X X X X f % % % _ ` ' ' ' ' ' ' ] + + + + + + + + Z O O O O O O O O O O O O O O O [ m m { + + + H (       ) X X X X X X X ",
"X X X X X X X f % % % } | p p p p p p  .+ + + + + + + + + + + + + + + + + + + + + + + + + + + + + + + H (       ) X X X X X X X ",
"X X X X X X X f % % % } | p p p p p p  .+ + + + + + + + + + + + + + + + + + + + + + + + + + + + + + + H (       ) X X X X X X X ",
"X X X X ..X.X.X.o.o.o.O.+.p p p @. . .#.q q q q q q q q q q q q q q q $.@ @ @ @ @ @ @ @ %.+ + + + + + * &.( ( ( *.X X X X X X X ",
"X X X X : % % =.p p p p p p p p m + + q                               -.;.X X X X X X X @ + + + + + + * = - - - c X X X X X X X ",
"X X X X : % % =.p p p p p p p p m + + q                               -.;.X X X X X X X @ + + + + + + * = - - - c X X X X X X X ",
"X X X X : % % =.p p p p p p p p m + + q                               -.;.X X X X X X X @ + + + + + + * = - - - c X X X X X X X ",
"X X X X :.>.>.,.p p p <.E E E E 1.O O 2.        3.3.3.3.3.3.3.3.3.3.3.Y 4.4.4.4.X X X X h 2 2 5.+ + + * = - - - 6.7.7.8.X X X X ",
"X X X X D +.+.9.p p p 0.O W W W q.w.w.w.      3., e.e.e.e.e.e.e.e.e.e.4.r.t.t.r.4.X X X u v v 1 + + + * = - - - y.u.u.i.X X X X ",
"X X X X p.p p p p p p 0.a.+ + + s.            3.e.X X X X X X X X X X d.t.% % t.4.X X X X X X f.+ + + * = - - - - - - 4 X X X X ",
"X X X X p.p p p p p p 0.a.+ + + s.            3.e.X X X X X X X X X X d.t.% % t.4.X X X X X X f.+ + + * = - - - - - - 4 X X X X ",
"X X X X p.p p p g.g.g.h.a.+ + + s.            3.e.X X X X X X X X X X d.t.t.t.r.4.X X X X X X f.+ + + W = - - - - - - j.e.e.e.e.",
"k.k.k.k.9.p p l.z.z.z.{ + + + + s.            3.e.X X X X X X X X X X # d.d.d.x.c.v.v.v.f X X b.n.n.n.m.3 Z Z Z M.- - N.B.B.B.B.",
"p p p p p p p V.+ + + + + + + + s.            3.e.X X X X X X X X X X X X X X # $ % % % X.X X X X X X C.5.+ + + l - - - - - - - ",
"p p p p p p p V.+ + + + + + + + s.            3.e.X X X X X X X X X X X X X X # $ % % % X.X X X X X X C.5.+ + + l - - - - - - - ",
"Z.Z.Z.Z.Z.Z.Z.A.+ + + + + + + + S.D.D.D.D.D.D.F.e.X X X X X X X X X X X X X X X ; d d d ; G.G.H.X X X v J.K.K.K.r q q L.- - - - ",
"+ + + + + + + + + + + + + + + + a p p p p p p | e.X X X X X X X X X X X X X X X X X X X P.% % I.X X X X X X X X j + + O - - - - ",
"+ + + + + + + + + + + + + + + + a p p p p p p | e.X X X X X X X X X X X X X X X X X X X P.% % I.X X X X X X X X j + + O - - - - ",
"+ + + + + + + + + + + + + + + + a p p p p p p | e.X X X X X X X X X X X X X X X X X X X P.% % I.X X X X X X X X j + + O - - - - ",
"n n n n n n n U.+ + + + + + + + a p p p p p p | e.X X X X X X X X X X X X X X X X X X X > v.v.Y.d.d.d.T.X X X X R.E.E.E.^ ^ ^ ^ ",
"W.W.W.W.W.W.W.Q.+ + + + + + + + a p p p p p p | e.X X X X X X X X X X X X X X X X X X X X X X !.t.t.t.~.^.X X X e.e.e./.+ + + + ",
"              F + + + + + + + + a p p p p p p | e.X X X X X X X X X X X X X X X X X X X X X X !.% % % r.(.X X X X X X 1 + + + + ",
"              F + + + + + + + + a p p p p p p | e.X X X X X X X X X X X X X X X X X X X X X X !.% % % r.(.X X X X X X 1 + + + + ",
").).).)._.`.`.'.* * * ].+ + + + 8 <.<.<.<.<.<.[.e.X X X X X X X X X X X X X X X X X X X X X X !.% % % r.{.e.e.e.e.e.e.}.+ + + + ",
"8.8.8.8.|. X X.XXXXXXXF * + + + oXR R R R R R OXu X X X X X X X X X X X X X X X X X X X X X X !.% % % B +X| | | | | | @X+ + + + ",
"X X X X : % % #X      ( H + + + ^ - - - - - - y u X X X X X X X X X X X X X X X X X X X X X X !.% % % B $Xp p p p p p 8 + + + + ",
"X X X X : % % #X      ( H + + + ^ - - - - - - y u X X X X X X X X X X X X X X X X X X X X X X !.% % % B $Xp p p p p p 8 + + + + ",
"X X X X : % % #X      ( H + + + ^ - - - - - - y u X X X X X X X X X X X X X X X X X X X X X X !.% % % B $Xp p p p p p 8 + + + + ",
"X X X X ..X.X.H.%X%X%X&X]  . . .1.t t *X- - - Q.=X=X=X=X8.X X X X X X X X X X X X X X X -XP.P.; i i i ;X+.p p p :X>X>X,XC C C C ",
"X X X X X X X f % % % } | p p p m + + t - - - - - - - - S X X X X X X X X X X X X X X X P.% % <Xp p p p p p p p 1X+ + 2XX X X X ",
"X X X X X X X f % % % } | p p p m + + t - - - - - - - - S X X X X X X X X X X X X X X X P.% % <Xp p p p p p p p 1X+ + 2XX X X X ",
"X X X X X X X f % % % } | p p p m + + O ^ ^ ^ ^ 3X- - - 4X5X5X5X5X5X5X. 8.8.8.8.8.8.8.8.6X<X<X,.p p p <.7Xa a a 8Xr r 9XX X X X ",
"X X X X X X X f % % % } | p p p m + + + + + + Z A - - - - - - - - - - s.p p p p p p p p p p p p p p p 0XqX+ + + wXX X X X X X X ",
"X X X X X X X f % % % } | p p p m + + + + + + Z A - - - - - - - - - - s.p p p p p p p p p p p p p p p 0XqX+ + + wXX X X X X X X ",
"X X X X X X X f % % % } | p p p m + + + + + + Z A - - - - - - - - - - s.p p p p p p p p p p p p p p p 0XqX+ + + wXX X X X X X X ",
"X X X X # V V eXB B B P.rX0X0X0Xz.+ + W O O O tXQ.R R R yXuXuXiX- - - R pXpXpXpXpXpXpXpXpXpXpXaX0X0X0X0.m O O O }.X X X X X X X ",
"X X X X sXB B dX$X$X$XfXz.qXqXqX].+ + gXo o o o L L L 8.hXjXjXkX- - - - Q.Q.Q.Q.Q.Q.Q.Q.Q.Q.Q.T qXqXqXm lXo o o v X X X X X X X ",
"X X X X : % % =.p p p 0.a.+ + + + + + @ X X X X X X X X v.% % zX- - - - - - - - - - - - - - - ^ + + + O o X X X X X X X X X X X ",
"X X X X : % % =.p p p 0.a.+ + + + + + @ X X X X X X X X v.% % zX- - - - - - - - - - - - - - - ^ + + + O o X X X X X X X X X X X ",
"X X X X : % % =.p p p 0.a.+ + + + + + @ X X X X X X X X v.% % zX- - - - - - - - - - - - - - - ^ + + + O o X X X X X X X X X X X ",
"X X X X xXb b cX1X1X1XvX+ + + + bXwXwXn.X X X X X X X X !.f f %XnXnXnXmXn n n n n n n n n n n [ l l l oXMXX X X X X X X X X X X ",
"X X X X p.p p V.+ + + + + + + + f.X X X X X X X X X X X X X X G.% % % NX* + + + + + + + + + + O - - - R L X X X X X X X X X X X ",
"X X X X p.p p V.+ + + + + + + + f.X X X X X X X X X X X X X X G.% % % NX* + + + + + + + + + + O - - - R L X X X X X X X X X X X ",
"BXBXBXBXVX8 8 9 s s s { + + + + f.X X X X X X X X X X X X X X eX: : : CXZXAXAXSXDX+ + + + + + O - - - Q.FXBXBXBX, X X X X X X X ",
"p p p p 3 + + m       ( H + + + f.X X X X X X X X X X X X X X X X X X d.t.% % GXHX+ + + + + + O - - - u.0Xp p p JXX X X X X X X ",
"p p p p 3 + + m       ( H + + + f.X X X X X X X X X X X X X X X X X X d.t.% % GXHX+ + + + + + O - - - u.0Xp p p JXX X X X X X X ",
"p p p p 3 + + m       ( H + + + f.X X X X X X X X X X X X X X X X X X d.t.% % GXHX+ + + + + + O - - - u.0Xp p p JXX X X X X X X ",
"p p p p 3 + + m       ( H + + + f.X X X X X X X X X X X X X X X X X X d.t.% % GXHX+ + + + + + O - - - u.0Xp p p JXX X X X X X X "
};
