/* XPM */
static char *result[] = {
/* columns rows colors chars-per-pixel */
"64 64 185 2 ",
"   c #3D364F",
".  c #3C3650",
"X  c #3E3851",
"o  c #5A394F",
"O  c #423751",
"+  c #4C3753",
"@  c #433951",
"#  c #4B3A52",
"$  c #533754",
"%  c #5C3756",
"&  c #533C52",
"*  c #5B3B52",
"=  c #663C4F",
"-  c #693C4F",
";  c #733D4F",
":  c #7C3E4F",
">  c #653756",
",  c #6C3757",
"<  c #633B52",
"1  c #6B3C52",
"2  c #733C53",
"3  c #7C3B54",
"4  c #783758",
"5  c #793958",
"6  c #4B4357",
"7  c #4D4658",
"8  c #544154",
"9  c #5C4254",
"0  c #624454",
"q  c #6B4353",
"w  c #644856",
"e  c #6C4956",
"r  c #654F5B",
"t  c #6A4B58",
"y  c #734352",
"u  c #7C4352",
"i  c #734C57",
"p  c #7E4C55",
"a  c #714D58",
"s  c #65535E",
"d  c #6C545D",
"f  c #7F5259",
"g  c #5F5762",
"h  c #635964",
"j  c #6C5B62",
"k  c #715F63",
"l  c #6B6067",
"z  c #6D656D",
"x  c #716266",
"c  c #71666B",
"v  c #71686F",
"b  c #6E6770",
"n  c #726B72",
"m  c #813F4F",
"M  c #923F4F",
"N  c #843D53",
"B  c #8C3D53",
"V  c #833958",
"C  c #8A3A58",
"Z  c #933E53",
"A  c #9B3E54",
"S  c #A23E54",
"D  c #8D414F",
"F  c #95424F",
"G  c #9E424E",
"H  c #824552",
"J  c #8D4251",
"K  c #854A54",
"L  c #8B4C54",
"P  c #8A435A",
"I  c #934352",
"U  c #9A4453",
"Y  c #954C54",
"T  c #9C4C53",
"R  c #855057",
"E  c #8C5157",
"W  c #835359",
"Q  c #8C5459",
"!  c #8F595D",
"~  c #945256",
"^  c #9C5356",
"/  c #92575B",
"(  c #925A5C",
")  c #9D5D5C",
"_  c #A5434E",
"`  c #AC444E",
"'  c #B0454E",
"]  c #A44252",
"[  c #AA4351",
"{  c #A34C53",
"}  c #AC4B53",
"|  c #A44659",
" . c #B34C52",
".. c #A45355",
"X. c #AD5255",
"o. c #AB545A",
"O. c #A45C5B",
"+. c #AB5B5A",
"@. c #B45355",
"#. c #B95355",
"$. c #B15957",
"%. c #BD5957",
"&. c #B45A59",
"*. c #BE5C59",
"=. c #A0605D",
"-. c #AC645F",
";. c #B1655E",
":. c #BB645C",
">. c #B3685F",
",. c #BD6A5F",
"<. c #975D60",
"1. c #AE6A64",
"2. c #B36A64",
"3. c #BD6D61",
"4. c #B47E70",
"5. c #C15D59",
"6. c #C4645C",
"7. c #C9665D",
"8. c #C6695F",
"9. c #C96A5E",
"0. c #CB6760",
"q. c #C36E61",
"w. c #CB6D61",
"e. c #D76E62",
"r. c #DA6C61",
"t. c #C77062",
"y. c #CE7363",
"u. c #CF7669",
"i. c #D27669",
"p. c #D3786A",
"a. c #DE7E6C",
"s. c #E37666",
"d. c #E47867",
"f. c #E57D6B",
"g. c #E87968",
"h. c #B58071",
"j. c #BC8373",
"k. c #BD957D",
"l. c #BF987E",
"z. c #DD806D",
"x. c #C2997F",
"c. c #E4826E",
"v. c #E58570",
"b. c #E78D74",
"n. c #EA9579",
"m. c #E69D7E",
"M. c #EC9D7D",
"N. c #EEA07F",
"B. c #9F9184",
"V. c #A09284",
"C. c #BEA78D",
"Z. c #BEB29A",
"A. c #C29E82",
"S. c #C5A184",
"D. c #C6A78A",
"F. c #C1AD93",
"G. c #C7B396",
"H. c #C2B49B",
"J. c #EEA381",
"K. c #F1AD86",
"L. c #EEBA8F",
"P. c #F5BB8E",
"I. c #F6BE91",
"U. c #F8BF91",
"Y. c #C4BBA5",
"T. c #C8BEA5",
"R. c #F3C595",
"E. c #F9C494",
"W. c #F5C897",
"Q. c #FBCA97",
"!. c #F4CD9C",
"~. c #FCCC99",
"^. c #F6D09E",
"/. c #FDD19D",
"(. c #C7C0AA",
"). c #EDDBAE",
"_. c #F5D3A3",
"`. c #FDD5A2",
"'. c #FED9A5",
"]. c #F5DAA9",
"[. c #FEDCAA",
"{. c #EEDEB1",
"}. c #F6E2B5",
"|. c #F6E7BE",
" X c #F6E8BD",
/* pixels */
"y.6.@.F o o m X.6.9.y.y.y.y.y.y.y.w.:.` y o = G #.9.y.y.y.y.y.y.-.w # @ @ @ @ @ O O @ @ X X # : _ %.9.y.y.y.y.y.y.y.y.y.y.6. .` ",
"y.9.*.T = o J @.6.y.y.y.y.y.y.y.y.y.6.@.u & q ..6.9.y.y.y.y.y.y.-.R w 0 0 0 w w 0 w w 0 9 # & ; { 6.y.y.y.y.y.y.y.y.y.y.y.8.%.@.",
"y.y.8.O.w 0 Y ,.9.y.y.y.y.y.y.y.y.y.q.:.W 9 e +.9.y.y.y.y.y.y.y.,.O.^ ^ =.) ) ) ) ) ) ^ L - & u X.6.y.y.y.y.y.y.y.y.y.y.y.y.8.6.",
"y.y.8.O.w 9 ~ ,.y.y.y.y.y.p.y.y.y.y.w.6.W 9 q =.9.y.y.y.y.y.y.y.9.%.@.:.6.6.,.6.6.6.6.&.{ y & u } %.6.9.9.9.9.9.9.9.8.8.9.9.8.6.",
"y.9.5.T 0 o L #.9.y.y.y.y.y.y.y.y.y.6.$.u o q ..6.w.y.y.y.y.y.t.q.o.| X.#.#.#.#.#.#.#.[ Z 1 & 1 I [ @.#.#.#.#.#.#.#.#.%.%.*.%.#.",
"-.+.T u o o ; Y O.-.-.-.>.-.-.1.-.-...F - & o H ^ -.-.-.-.-.-.-...P 3 D F F F F F F F N , $ + * 5 N F F F F F F F F F F T T Y F ",
"a e q * # # & 0 q a d a a a a a i e q = o @ # 9 q q e a a a a a q % o = = = 0 = - = < % $ # # + $ < < < = - = = = = = = q - = = ",
"0 9 9 9 9 9 9 9 w 9 9 9 9 o 8 # 8 9 0 w 8 0 0 0 0 0 w w w 8 9 # # $ o o o o # @ @ @ @ # & & $ * * * * * $ # # @ @ # & $ o 9 0 0 ",
"( ( ( ( <.( ( ( ( ( ( ! K y o # = p Q ( ( ( ( ( ( ( ( ( / K y & # - u m 3 2 > + X X O % 1 3 m m m m H 2 , $ O X @ # > 3 H L ( ( ",
"q.t.t.t.q.q.q.q.q.q.q.q.&.Y - o q ~ +.-.>.>.>.>.>.>.>.;.$...L o & 3 F F Z N , $ X X + % 4 N M M M F M B 5 % + X @ % 5 U X.:.8.q.",
"y.y.y.y.y.y.y.y.y.y.y.y.:.~ q # 9 y L E ~ / ! ( ( ) ( ) ~ L u & # = ; ; 1 < * + O X O $ % 1 1 q ; ; 1 1 % $ @ X # = J } 6.9.y.y.",
"y.y.y.y.y.y.y.y.y.y.y.t.-.R 0 # # & * 9 9 8 8 0 w w w q q q * # @ @ @ # O # O O X . X #   # # O @ # O # O O X X @ = D X.6.y.y.y.",
"y.y.y.y.y.y.y.y.y.y.y.9.+.p = @ X O O # @ O O # # # # # & # # @ X X O @ X X X X X X X X X . . .   X X X X X X X O % N [ 5.7.y.w.",
"3.q.3.q.3.3.3.3.3.q.3.-.~ q o @ # & & # 8 & 8 & 8 & & 9 8 & # @ X X @ # # & & & & & & & 6 & & $ # # O X X X X X @ $ 5 I { &.>.,.",
"f W W f f W f f W W R f e & # @ < H Q / ( / / / ( ( / / Q L y & @ X & q L ~ ( / ( ( / / / / / Q L < # X X X X X O # * = y K W f ",
"8 8 9 8 8 9 & & 8 # & & & # @ # p @.0.u.i.p.p.p.p.y.p.y.w.5.{ = @   9 ~ 6.9.p.p.i.p.p.i.i.p.p.w.%.K # X X @ @ # # # & & & o & & ",
"W W W W W f y - # # o y y 9 # o R 9.s.f.c.c.c.c.c.d.f.c.d.e.+.q @ @ 9 O.e.d.g.g.d.c.c.f.c.c.c.d.9.Q & X O + % , ; ; y y u y ; ; ",
"3.3.3.3.3.,.$.F = 8 y ^ ~ e 8 8 W y.f.c.c.d.f.c.c.c.c.v.v.z.2.t @ X w 1.z.v.v.v.c.c.c.c.g.d.g.d.u./ #   X % 4 C A _ _ ` } X._ _ ",
"y.y.y.y.y.e.6...q 0 R ;.O.i 8 8 Q u.c.f.g.f.c.b.n.M.N.N.N.M.j.d X X s h.m.J.N.N.N.n.b.c.g.g.d.c.i.<.8 X # < Z S ` ' '  .5.6.6.%.",
"y.y.y.y.y.y.9.-.y 0 Q >.) i 8 8 Q u.a.g.f.c.b.M.K.P.E.E.E.R.x.x X X d k.P.R.E.R.P.K.M.b.c.c.c.c.i.( &   + 1 M ` ` ` ' #.6.9.9.9.",
"y.y.y.y.y.w.9.+.y 9 L $.^ i 8 & W u.c.c.c.b.M.K.P.Q.Q.~.~.W.S.x X   d S.R.Q.Q.Q.R.P.K.M.b.v.c.c.p.( 6 . # < C S ` ' ' #.5.9.6.*.",
"q.q.q.q.q.,.&.F = o u G L e # 8 ! u.f.c.b.M.K.P.E.Q.Q.~.~.R.S.k @   d C.R.Q.Q.Q.Q.Q.E.K.N.b.c.c.i.( & . O % V Z _ _ _ ` @.@.X.} ",
"( ! ( ( ( W p - & # = ; q 8 # 8 ( u.d.c.n.K.P.Q.~.Q.Q.Q.~.Q.S.k X . d x.R.Q.Q.Q.Q.Q.Q.P.K.n.c.c.p./ & X O # > 2 : m u H p H u : ",
"9 0 9 w w 9 9 o 8 # o o & @ @ # ! u.g.c.M.P.Q.Q.Q.Q.Q.Q.~.R.S.k X . d C.R.Q.Q.Q.Q.Q.Q.Q.P.N.c.g.p./ & X O O # & o $ o o o 9 o o ",
"q q y i i i f a a a a e 9 # @ 8 ( u.d.v.N.P.Q.Q.Q.Q.Q.Q.Q.R.S.k @ . j l.R.Q.Q.Q.Q.Q.Q.~.E.N.v.g.p.( 8 X X X X X O # $ < q y a a ",
"F T +.-.>.>.>.>.>.>.-.=.p 9 # o ! u.d.v.N.P.Q.Q.Q./.~.~.~.W.S.k X . j x.W./.Q./.~.Q.~.Q.E.N.c.d.y.( # X X X X X O + , B T ..-.>.",
"#.*.9.w.y.y.y.y.y.y.y.q.( 0 # 8 E w.s.c.N.R.~.~./.`.'.[.[.].D.x @ X j C._.[.[.[././.~.~.E.N.v.s.e.Q # @ X X X X # % N { %.9.9.y.",
"9.9.y.y.y.y.y.y.y.y.y.q.) e # o K *.e.a.N.L.R.!.!.].}. X X).G.z X X l C.). X X}.).^.R.W.R.m.z.y.5.L & X X X X X @ o I @.6.y.y.y.",
"6.8.w.y.y.y.y.y.y.y.y.q.) e & # 2 T +.1.h.l.x.S.C.C.H.(.T.Z.B.h . . g k.Z.Y.(.Z.Z.C.x.x.l.h.2.=.~ q # O X X X   @ % J @.6.y.y.y.",
"@.%.9.y.y.y.y.t.t.y.t.8.^ q & @ # 9 9 w d d l d j z z z b b h 7 X . X h z z b b l l d k d d w 9 9 & #   X X X X @ % 3 U @.6.w.t.",
"@.#.9.y.y.t.9.:.;.-.:.:.^ q 8 @ O X O @ X X X   X       X X X X X X X X . . . . X . . 6 X @ O X O X X X X X X X @ $ , 3 F ^ O.=.",
"6.8.t.y.y.w.:.} K i ~ $.^ e 8 @ O O O @ @ X X X X X X X X X X X X X X X . . X X X X . X X @ O @ O X X X X X X O O # & & < 0 w q ",
"w.t.y.y.w.9.#.T u < K { Q w 8 @ & < < t t k k k x c v n n v h 7 X X 7 g b n n v v x x k k d t q 0 $ # O O # # * % % o < < * = = ",
"9.9.y.y.w.7.:.X.H u J Y p 9 # # q T o.1.j.A.S.A.D.G.T.T.T.H.V.j . . 7 k.Z.(.(.T.G.D.S.S.x.x.2.+.T y # X O * , 3 B D D D Y I D D ",
"8.9.y.y.w.9.5. .U I U I q # O # K 5.r.a.M.I.E.R.^.].}.|. X{.F.c X . z C.). X X}.].^.R.R.K.M.z.r.6.L &   X % N A _ ` `  .#.#.@.@.",
"9.w.y.y.w.9.#. .` ` [ U 1 # X # ~ w.s.f.J.I.~.~.~.`.`.[.[.`.D.x X . l C.^.[.[.'././.~.~.E.N.v.d.9.Q # . # > Z ] ` ` ' #.6.8.6.6.",
"9.9.y.y.t.7.#. .' ' [ U 1 O . # ! u.f.v.J.P.~.~.~.Q.~.~.~.W.A.k X   l l.R././.Q.Q.Q.~.~.R.J.v.f.y.( 6   # 1 Z [ ` ' ' #.9.9.9.7.",
"@.5.9.w.8.%. .' ` _ S C < @ . 6 ! u.d.v.M.P.Q.Q.Q.Q.Q.Q.~.R.A.k X . l l.R.W.Q.Q.Q.Q.Q.~.E.J.v.f.p.( & X O % N S ` ` ' @.5.*.%.#.",
"G T +.-.+...U F F I B 4 % O X # ! u.d.v.M.P.E.Q.Q.Q.Q.Q.~.Q.S.k X   j l.R.Q.Q.Q.Q.Q.Q.Q.I.M.v.g.p./ & X   $ 2 N D F G G T ^ G F ",
"= - y e y q - - = < < $ # O O 6 ! u.f.f.n.K.P.E.Q.Q.Q.~.~.Q.S.k X   j l.R.Q.Q.Q.Q.~.E.U.K.n.v.f.p./ & O @ + $ > = q - - q q - q ",
"8 0 9 9 9 9 & # # O O O @ X X & ! u.v.f.b.J.J.I.E.Q.Q.~.~.R.S.k @   j l.R.~.Q.Q.Q.E.I.K.M.b.v.f.i./ 8 X X O O O @ # & $ * 9 0 9 ",
"( ( ( Q R H ; = # . X X X X X & ! u.f.f.v.b.J.K.I.E.~.~.~.R.A.k X   l x.W.~.Q.~.Q.P.K.M.b.v.f.c.i.( & X X X X X O # < 2 u K Q ( ",
"q.q.q.8.:.o.U N $ # X X X X X # ! u.a.f.f.v.v.J.K.P.I.I.U.L.A.k X   j l.L.P.P.E.P.K.M.b.c.f.f.c.p.( & X X X X . O % 3 U X.:.8.8.",
"y.y.y.y.w.5.} I < # X X X . X 6 ! u.v.f.g.f.f.a.n.n.J.J.J.J.4.a   . r h.m.N.N.N.M.M.b.c.f.g.f.f.p.( 8 X X X X X @ o B } 6.w.y.y.",
"y.y.y.y.y.7.@.U > # X X X X @ # / u.f.f.f.f.v.f.v.v.v.v.c.a.2.t 6   0 >.z.c.c.b.c.c.c.f.f.g.g.f.i./ & X X X X X # % J @.6.w.y.y.",
"y.y.y.y.7.5.} B < # X . X X X # E 0.r.f.f.f.a.v.f.f.d.d.d.r.+.q @   9 $.e.s.f.c.c.c.c.f.c.f.f.s.7.Q & X X X X X O % B [ *.9.w.y.",
",.3.3.,.&...I 5 $ @ X X X X X # u @.0.i.u.u.p.u.u.u.u.u.w.5.Y < @ X 9 T *.9.y.y.y.u.u.p.u.u.u.0.@.K # O X X X X @ $ 3 I ..&.,.,.",
"W W W R p u q % # @ X X X X X # < u P / ! / / / ! ! ( ( E L y # @ X # y K E ( ( Q / / Q ! ! Q ~ K < # X X X X X X # % - y p W f ",
"& & 9 9 & & & & + # O + O X X O O & & & # & # 8 # & 8 # & # # # X X O # # 8 & & 8 & & 8 & & & & # # O X X X X X X X @ # # # 6 # ",
"; u p W p y y : ; ; 1 % + O X X X O     . X   . X   . .     O   X X X X X O X X X X X X O X X O X X X X X X X X X X X X X X X X ",
"_ { ;.:.&.X._ _ _ A Z 4 % O X O O O @ O # # # # O # O O @ @ O O X X X X X X X X X X X X X X X X X X X X X X X X X X X X X X X X ",
"*.6.w.y.9.5. . .` ` S Z > # # % > 1 - ; - ; - ; 1 1 1 1 < % $ + X X X X X X X   X X X X X X X X X X X X X X X X X X X X X X X X ",
"0.q.y.y.y.6.#.' ' ` _ Z 2 + % 4 V Z Z A G G G S G G A Z Z V , $ O O O # + # @ @ # # # O O O X X X X X X X X X X X X X X X X X X ",
"6.6.t.y.9.6.#.' ' ' S Z 1 & < C S S ` ' ' ' ' ' ' ' ' S S A 3 $ # $ < - ; ; ; ; - ; 1 < $ + O X X X . X X X X X X X X X X X X X ",
"} @.:.8.6.#.} ` _ S A V < & 1 C A S ` ` ` _ _ _ ` _ ` _ A A 3 & & > 3 B M F F M M F M N , % O X . X X X X X X X X X X X X X . X ",
": H Q Q E K H m m m 4 > $ @ * 2 : m : m m m H : u m : m 3 : > + # % , 2 : m m m m m N 2 > & O X X X X X . X X X X X X X X X X X ",
"o 9 0 0 o 9 * o o o $ $ # # @ & * * * o * $ $ o & * * * o * # # @ + & * * * o * * * * $ $ # # @ # O # O @ X X @ @ @ # @ # # @ # ",
"a e e e q 9 # @ # * < < = < = = = = % * + # + & * < = = = = = < = = < = o % + # O # * < = - - - = = = < * # # # * q e a d a a a ",
"-.-.-.+.T H o # < 4 B I F F F F I F B 3 % # $ , 3 I F F F F F F F F F F J N , $ + % 3 B F F F F F F I B 3 % & = H ..O.-.-.-.-.-.",
"y.y.y.9.5...q o 2 U  .#.#.#.#.#.#.@.} U 1 $ = H |  .#.#.#.#.#.#.@.#.#.#. .| B < & 2 U } #.#.#.#.#.@.#.} U , 8 q ^ 5.w.y.y.y.y.y.",
"y.y.y.y.w.O.q 9 H X.5.7.8.8.9.9.8.8.:. .u * q T %.6.9.9.w.8.8.9.9.9.9.9.6.#.T 1 * u X.6.8.9.8.w.8.8.6.6.X.u o y -.w.y.y.y.y.y.y.",
"y.y.y.y.9.O.q 9 H $.6.y.y.y.y.y.y.y.7.@.H o y { 5.9.y.y.y.y.y.y.y.y.y.y.9.5.{ q o p $.6.y.y.y.y.y.y.y.7.#.p o y +.9.y.y.y.y.u.y.",
"y.y.y.w.5.G - o H } 5.y.y.y.y.y.y.y.6.X.u o y G %.9.y.y.y.y.y.y.y.y.y.y.9.*.T - o u X.5.w.y.y.y.y.y.y.6.@.u o q T *.q.y.y.y.y.y.",
"y.y.y.9.#.F = o m } 6.t.y.y.y.y.y.9.5.` : $ - F %.9.y.y.y.y.y.y.y.y.y.y.9.#.F - o u ` *.w.y.y.y.y.y.9.*.` ; o - G $.w.u.y.y.u.y."
};
