/* XPM */
static char *result[] = {
/* columns rows colors chars-per-pixel */
"96 96 3 1 ",
"  c black",
". c #3B0A0F",
"X c #9E1B29",
/* pixels */
"                                                                                                ",
"                                                                                                ",
"                                                                                                ",
"                                                                                                ",
"                                                                                                ",
"                                                                                                ",
"                                                                                                ",
"                                                                                                ",
"                                                                                                ",
"                                                                                                ",
"                                                                                                ",
"                                                                                                ",
"                                                                                                ",
"                                                                                                ",
"                                                                                                ",
"                                                                                                ",
"                                                                                                ",
"                                                                                                ",
"                                                                                                ",
"                                                                                                ",
"                                                                                                ",
"                                                                                                ",
"                                                                                                ",
"                                                                                                ",
"                                             ..................                                 ",
"                                             ..................                                 ",
"                                             ..................                                 ",
"                        XXXXXXXXXXXX         ..................                                 ",
"                        XXXXXXXXXXXX         ..................                                 ",
"                        XXXXXXXXXXXX         ..................                                 ",
"                        XXXXXXXXXXXX                                                            ",
"                        XXXXXXXXXXXX                                                            ",
"                        XXXXXXXXXXXX                                                            ",
"                                                                                                ",
"                                                                                                ",
"                                                                                                ",
"                                                                                                ",
"                                                                                                ",
"                                                                                                ",
"                                                                                                ",
"                                                                                                ",
"                                                                                                ",
"            ..................                        XXXXXXXXXXXXXXXXXX                        ",
"            ..................                        XXXXXXXXXXXXXXXXXX                        ",
"            ..................                        XXXXXXXXXXXXXXXXXX                        ",
"            ..................                        XXXXXXXXXXXXXXXXXX                        ",
"            ..................                        XXXXXXXXXXXXXXXXXX                        ",
"            ..................                        XXXXXXXXXXXXXXXXXX                        ",
"                                                                                                ",
"                                                                                                ",
"                                                                                                ",
"                                                                                                ",
"                                                                                                ",
"                                                                                                ",
"                                                                                                ",
"                                                                                                ",
"                                                                                                ",
"                                                                                                ",
"                                                                                                ",
"                                                                                                ",
"                        XXXXXXXXXXXXXXXXXX                                                      ",
"                        XXXXXXXXXXXXXXXXXX                                                      ",
"                        XXXXXXXXXXXXXXXXXX                                                      ",
"                        XXXXXXXXXXXXXXXXXX                                                      ",
"                        XXXXXXXXXXXXXXXXXX                                                      ",
"                        XXXXXXXXXXXXXXXXXX                                                      ",
"                                                         ..................                     ",
"                                                         ..................                     ",
"                                                         ..................                     ",
"                                                         ..................                     ",
"                                                         ..................                     ",
"                                                         ..................                     ",
"                                                                                                ",
"                                                                                                ",
"                                                                                                ",
"                                                                                                ",
"                                                                                                ",
"                                                                                                ",
"                                                                                                ",
"                                                                                                ",
"                                                                                                ",
"                                                                                                ",
"                                                                                                ",
"                                                                                                ",
"                                                                                                ",
"                                                                                                ",
"                                                                                                ",
"                                                                                                ",
"                                                                                                ",
"                                                                                                ",
"                                                                                                ",
"                                                                                                ",
"                                                                                                ",
"                                                                                                ",
"                                                                                                ",
"                                                                                                "
};
