/* XPM */
static char *result[] = {
/* columns rows colors chars-per-pixel */
"96 96 6 1 ",
"  c black",
". c #202020",
"X c #693C12",
"o c #794413",
"O c #C52233",
"+ c #9C9022",
/* pixels */
"                                                                                                ",
"                                                                                                ",
"                                                                                                ",
"                                                                                                ",
"                                                                                                ",
"                                                                                                ",
"                                                                                                ",
"                                                                                                ",
"                                                                                                ",
"                                          ............                                          ",
"                                          ............                                          ",
"                                          ............                                          ",
"                                          ...++++++...                                          ",
"                                          ...++++++...                                          ",
"                                          ...++++++...                                          ",
"            .................................++++++.................................            ",
"            .................................++++++.................................            ",
"            .................................++++++.................................            ",
"            ...+++++++++++++++++++++++++++...++++++...+++++++++++++++++++++++++++...            ",
"            ...+++++++++++++++++++++++++++...++++++...+++++++++++++++++++++++++++...            ",
"            ...+++++++++++++++++++++++++++...++++++...+++++++++++++++++++++++++++...            ",
"            ...+++............................................................+++...            ",
"            ...+++............................................................+++...            ",
"            ...+++............................................................+++...            ",
"            ...+++...XXXXXXXXXXXXXXXXXXXXXXXXXXXXXXXXXXXXXXXXXXXXXXXXXXXXXX...+++...            ",
"            ...+++...XXXXXXXXXXXXXXXXXXXXXXXXXXXXXXXXXXXXXXXXXXXXXXXXXXXXXX...+++...            ",
"            ...+++...XXXXXXXXXXXXXXXXXXXXXXXXXXXXXXXXXXXXXXXXXXXXXXXXXXXXXX...+++...            ",
"            ...+++...XXXXXXXXXXXXXXXXXXXXXXXXXXXXXXXXXXXXXXXXXXXXXXXXXXXXXX...+++...            ",
"            ...+++...XXXXXXXXXXXXXXXXXXXXXXXXXXXXXXXXXXXXXXXXXXXXXXXXXXXXXX...+++...            ",
"            ...+++...XXXXXXXXXXXXXXXXXXXXXXXXXXXXXXXXXXXXXXXXXXXXXXXXXXXXXX...+++...            ",
"            ...+++...XXXXXXXXXXXXXXXXXXXXXXXXXXXXXXXXXXXXXXXXXXXXXXXXXXXXXX...+++...            ",
"            ...+++...XXXXXXXXXXXXXXXXXXXXXXXXXXXXXXXXXXXXXXXXXXXXXXXXXXXXXX...+++...            ",
"            ...+++...XXXXXXXXXXXXXXXXXXXXXXXXXXXXXXXXXXXXXXXXXXXXXXXXXXXXXX...+++...            ",
"            ...+++...XXXXXXXXXXXXXXXXXXXXXXXXXXXXXXXXXXXXXXXXXXXXXXXXXXXXXX...+++...            ",
"            ...+++...XXXXXXXXXXXXXXXXXXXXXXXXXXXXXXXXXXXXXXXXXXXXXXXXXXXXXX...+++...            ",
"            ...+++...XXXXXXXXXXXXXXXXXXXXXXXXXXXXXXXXXXXXXXXXXXXXXXXXXXXXXX...+++...            ",
"            ...+++...XXXXXXXXXXXXXXXXXXXXXXXXXXXXXXXXXXXXXXXXXXXXXXXXXXXXXX...+++...            ",
"            ...+++...XXXXXXXXXXXXXXXXXXXXXXXXXXXXXXXXXXXXXXXXXXXXXXXXXXXXXX...+++...            ",
"            ...+++...XXXXXXXXXXXXXXXXXXXXXXXXXXXXXXXXXXXXXXXXXXXXXXXXXXXXXX...+++...            ",
"            ...+++...XXXXXXXXXXXXXXXXXXXXXXXXXXXXXXXXXXXXXXXXXXXXXXXXXXXXXX...+++...            ",
"            ...+++...XXXXXXXXXXXXXXXXXXXXXXXXXXXXXXXXXXXXXXXXXXXXXXXXXXXXXX...+++...            ",
"            ...+++...XXXXXXXXXXXXXXXXXXXXXXXXXXXXXXXXXXXXXXXXXXXXXXXXXXXXXX...+++...            ",
"            ...+++...XXXXXXXXXXXXOOOOOOXXXXXXXXXXXXXXXXXXXXXXXXXXXXXXXXXXXX...+++...            ",
"            ...+++...XXXXXXXXXXXXOOOOOOXXXXXXXXXXXXXXXXXXXXXXXXXXXXXXXXXXXX...+++...            ",
"            ...+++...XXXXXXXXXXXXOOOOOOXXXXXXXXXXXXXXXXXXXXXXXXXXXXXXXXXXXX...+++...            ",
"            ...+++...XXXXXXOOOOOOOOOOOOOOOXXXXXXXXXXXXXXXXXXOOOOOOOOOXXXXXX...+++...            ",
"            ...+++...XXXXXXOOOOOOOOOOOOOOOXXXXXXXXXXXXXXXXXXOOOOOOOOOXXXXXX...+++...            ",
"            ...+++...XXXXXXOOOOOOOOOOOOOOOXXXXXXXXXXXXXXXXXXOOOOOOOOOXXXXXX...+++...            ",
"            ...+++............................................................+++...            ",
"            ...+++............................................................+++...            ",
"            ...+++............................................................+++...            ",
"            ...++++++++++++++++++++++++++++++++++++++++++++++++++++++++++++++++++...            ",
"            ...++++++++++++++++++++++++++++++++++++++++++++++++++++++++++++++++++...            ",
"            ...++++++++++++++++++++++++++++++++++++++++++++++++++++++++++++++++++...            ",
"            ...+++............................................................+++...            ",
"            ...+++............................................................+++...            ",
"            ...+++............................................................+++...            ",
"            ...+++...oooooooooooooooooooooooooooooooooooooooooooooooooooooo...+++...            ",
"            ...+++...oooooooooooooooooooooooooooooooooooooooooooooooooooooo...+++...            ",
"            ...+++...oooooooooooooooooooooooooooooooooooooooooooooooooooooo...+++...            ",
"            ...+++...oooooooooooooooooooooooooooooooooooooooooooooooooooooo...+++...            ",
"            ...+++...oooooooooooooooooooooooooooooooooooooooooooooooooooooo...+++...            ",
"            ...+++...oooooooooooooooooooooooooooooooooooooooooooooooooooooo...+++...            ",
"            ...+++...oooooooooooooooooooooooooooooooooooooooooooooooooooooo...+++...            ",
"            ...+++...oooooooooooooooooooooooooooooooooooooooooooooooooooooo...+++...            ",
"            ...+++...oooooooooooooooooooooooooooooooooooooooooooooooooooooo...+++...            ",
"            ...+++...oooooooooooooooooooooooooooooooooooooooooooooooooooooo...+++...            ",
"            ...+++...oooooooooooooooooooooooooooooooooooooooooooooooooooooo...+++...            ",
"            ...+++...oooooooooooooooooooooooooooooooooooooooooooooooooooooo...+++...            ",
"            ...+++............................................................+++...            ",
"            ...+++............................................................+++...            ",
"            ...+++............................................................+++...            ",
"      OOOOOO...++++++++++++++++++++++++++++++++++++++++++++++++++++++++++++++++++OOOOOO         ",
"      OOOOOO...++++++++++++++++++++++++++++++++++++++++++++++++++++++++++++++++++OOOOOO         ",
"      OOOOOO...++++++++++++++++++++++++++++++++++++++++++++++++++++++++++++++++++OOOOOO         ",
"OOOOOOOOOOOO...OOOOOO...............OOOOOO...............OOOOOO.........OOOOOO...OOOOOO         ",
"OOOOOOOOOOOO...OOOOOO...............OOOOOO...............OOOOOO.........OOOOOO...OOOOOO         ",
"OOOOOOOOOOOO...OOOOOO...............OOOOOO...............OOOOOO.........OOOOOO...OOOOOO         ",
"OOOOOO         OOOOOO   OOOOOO      OOOOOO      OOOOOO   OOOOOO         OOOOOO      OOOOOO      ",
"OOOOOO         OOOOOO   OOOOOO      OOOOOO      OOOOOO   OOOOOO         OOOOOO      OOOOOO      ",
"OOOOOO         OOOOOO   OOOOOO      OOOOOO      OOOOOO   OOOOOO         OOOOOO      OOOOOO      ",
"                        OOOOOO                  OOOOOO                              OOOOOO      ",
"                        OOOOOO                  OOOOOO                              OOOOOO      ",
"                        OOOOOO                  OOOOOO                              OOOOOO      ",
"                                                               OOOOOO                           ",
"                                                               OOOOOO                           ",
"                                                               OOOOOO                           ",
"                                                               OOOOOO                           ",
"                                                               OOOOOO                           ",
"                                                               OOOOOO                           ",
"                                                                                                ",
"                                                                                                ",
"                                                                                                ",
"                                                                                                ",
"                                                                                                ",
"                                                                                                "
};
