/* XPM */
static char *result[] = {
/* columns rows colors chars-per-pixel */
"96 96 5 1 ",
"  c black",
". c #282C4F",
"X c #3F286E",
"o c #C19C17",
"O c #4E2C98",
/* pixels */
"                                                                                                ",
"                                                                                                ",
"                                                                                                ",
"                                             XXXXXXXXX                                          ",
"                                             XXXXXXXXX                                          ",
"                                             XXXXXXXXX                                          ",
"                                             XXXoooXXXXXX   XXXXXXXXXXXX                        ",
"                                             XXXoooXXXXXX   XXXXXXXXXXXX                        ",
"                                             XXXoooXXXXXX   XXXXXXXXXXXX                        ",
"                                             XXXooooooXXX   XXXooooooXXX                        ",
"                                             XXXooooooXXX   XXXooooooXXX                        ",
"                                             XXXooooooXXX   XXXooooooXXX                        ",
"                                       XXXXXXXXXXXXXXXXXXXXXXXXXXXXXXXXXXXX                     ",
"                                       XXXXXXXXXXXXXXXXXXXXXXXXXXXXXXXXXXXX                     ",
"                                       XXXXXXXXXXXXXXXXXXXXXXXXXXXXXXXXXXXX                     ",
"                                       XXXooooooXXX...XXXoooXXX...XXXoooXXX                     ",
"                                       XXXooooooXXX...XXXoooXXX...XXXoooXXX                     ",
"                                       XXXooooooXXX...XXXoooXXX...XXXoooXXX                     ",
"                              XXXXXXXXXXXXXXXXXXXXX...XXXXXXXXX...XXXXXXXXX                     ",
"                              XXXXXXXXXXXXXXXXXXXXX...XXXXXXXXX...XXXXXXXXX                     ",
"                              XXXXXXXXXXXXXXXXXXXXX...XXXXXXXXX...XXXXXXXXX                     ",
"                              XXXoooXXX.................................XXXXXXXXX               ",
"                              XXXoooXXX.................................XXXXXXXXX               ",
"                              XXXoooXXX.................................XXXXXXXXX               ",
"                              XXXoooXXXXXXXXXXXX...XXXXXXXXXXXX...XXXXXXXXXoooXXX               ",
"                              XXXoooXXXXXXXXXXXX...XXXXXXXXXXXX...XXXXXXXXXoooXXX               ",
"                              XXXoooXXXXXXXXXXXX...XXXXXXXXXXXX...XXXXXXXXXoooXXX               ",
"                              XXXXXXXXXXXXoooXXX...XXXooooooXXX...XXXoooXXXoooXXX               ",
"                              XXXXXXXXXXXXoooXXX...XXXooooooXXX...XXXoooXXXoooXXX               ",
"                              XXXXXXXXXXXXoooXXX...XXXooooooXXX...XXXoooXXXoooXXX               ",
"                                       XXXoooXXX...XXXooooooXXX...XXXoooXXXXXXXXX               ",
"                                       XXXoooXXX...XXXooooooXXX...XXXoooXXXXXXXXX               ",
"                                       XXXoooXXX...XXXooooooXXX...XXXoooXXXXXXXXX               ",
"                                       XXXoooXXX...XXXooooooXXX...XXXoooXXX                     ",
"                                       XXXoooXXX...XXXooooooXXX...XXXoooXXX                     ",
"                                       XXXoooXXX...XXXooooooXXX...XXXoooXXX                     ",
"                                       XXXXXXXXX...XXXXXXXXXXXX...XXXXXXXXX                     ",
"                                       XXXXXXXXX...XXXXXXXXXXXX...XXXXXXXXX                     ",
"                                       XXXXXXXXX...XXXXXXXXXXXX...XXXXXXXXX                     ",
"                                          ...........................                           ",
"                                          ...........................                           ",
"                                          ...........................                           ",
"                                       OOOOOOOOOOOOOOOOOOOOOOOOOOOOOOOOO                        ",
"                                       OOOOOOOOOOOOOOOOOOOOOOOOOOOOOOOOO                        ",
"                                       OOOOOOOOOOOOOOOOOOOOOOOOOOOOOOOOO                        ",
"                                       OOOOOOOOOOOOOOOOOOOOOOOOOOOOOOOOO                        ",
"                                       OOOOOOOOOOOOOOOOOOOOOOOOOOOOOOOOO                        ",
"                                       OOOOOOOOOOOOOOOOOOOOOOOOOOOOOOOOO                        ",
"                                          ...........................                           ",
"                                          ...........................                           ",
"                                          ...........................                           ",
"                                    OOOOOOOOO........................OOOOOO                     ",
"                                    OOOOOOOOO........................OOOOOO                     ",
"                                    OOOOOOOOO........................OOOOOO                     ",
"                                    OOOOOOOOOOOOOOOOOOOOOOOOOOOOOOOOOOOOOOO                     ",
"                                    OOOOOOOOOOOOOOOOOOOOOOOOOOOOOOOOOOOOOOO                     ",
"                                    OOOOOOOOOOOOOOOOOOOOOOOOOOOOOOOOOOOOOOO                     ",
"                                    OOOOOOOOO........................OOOOOO                     ",
"                                    OOOOOOOOO........................OOOOOO                     ",
"                                    OOOOOOOOO........................OOOOOO                     ",
"                                 .............................................                  ",
"                                 .............................................                  ",
"                                 .............................................                  ",
"                                 ...               ...                        ...               ",
"                                 ...               ...                        ...               ",
"                                 ...               ...                        ...               ",
"                           OOOOOO...OOO         OOO...OOO                  OOO...OOO            ",
"                           OOOOOO...OOO         OOO...OOO                  OOO...OOO            ",
"                           OOOOOO...OOO         OOO...OOO                  OOO...OOO            ",
"                           OOOOOO...OOO         OOO...                     OOO...OOO            ",
"                           OOOOOO...OOO         OOO...                     OOO...OOO            ",
"                           OOOOOO...OOO         OOO...                     OOO...OOO            ",
"                           OOOOOO...OOO         OOO...OOO                  OOO...OOO            ",
"                           OOOOOO...OOO         OOO...OOO                  OOO...OOO            ",
"                           OOOOOO...OOO         OOO...OOO                  OOO...OOO            ",
"                              OOO...            OOO...OOO                     ...               ",
"                              OOO...            OOO...OOO                     ...               ",
"                              OOO...            OOO...OOO                     ...               ",
"                                 ......            ...                     ......               ",
"                                 ......            ...                     ......               ",
"                                 ......            ...                     ......               ",
"                              OOOOOO...            ...OOOOOO               ...OOO               ",
"                              OOOOOO...            ...OOOOOO               ...OOO               ",
"                              OOOOOO...            ...OOOOOO               ...OOO               ",
"                              OOOOOO...            ...OOOOOO               ...OOO               ",
"                              OOOOOO...            ...OOOOOO               ...OOO               ",
"                              OOOOOO...            ...OOOOOO               ...OOO               ",
"                                    ......         ......               ......                  ",
"                                    ......         ......               ......                  ",
"                                    ......         ......               ......                  ",
"                                       ...            ...               ...                     ",
"                                       ...            ...               ...                     ",
"                                       ...            ...               ...                     ",
"                                                                                                ",
"                                                                                                ",
"                                                                                                "
};
