/* XPM */
static char *result[] = {
/* columns rows colors chars-per-pixel */
"96 96 4 1 ",
"  c black",
". c #3B0A0F",
"X c #C52233",
"o c white",
/* pixels */
"                                                                                                ",
"                                                                                                ",
"                                                                                                ",
"                                                                                                ",
"                                                                                                ",
"                                                                                                ",
"                                                                                                ",
"                                                                                                ",
"                                                                                                ",
"            oooooooooooooooooooooooooooooooooooooooooooooooooooooooooooooooooooooooo            ",
"            oooooooooooooooooooooooooooooooooooooooooooooooooooooooooooooooooooooooo            ",
"            oooooooooooooooooooooooooooooooooooooooooooooooooooooooooooooooooooooooo            ",
"            oooooooooooooooooooooooooooooooooooooooooooooooooooooooooooooooooooooooo            ",
"            oooooooooooooooooooooooooooooooooooooooooooooooooooooooooooooooooooooooo            ",
"            oooooooooooooooooooooooooooooooooooooooooooooooooooooooooooooooooooooooo            ",
"            oooooo                                                            oooooo            ",
"            oooooo                                                            oooooo            ",
"            oooooo                                                            oooooo            ",
"            oooooo                                                            oooooo            ",
"            oooooo                                                            oooooo            ",
"            oooooo                                                            oooooo            ",
"   .........oooooo                                                            oooooo            ",
"   .........oooooo                                                            oooooo            ",
"   .........oooooo                                                            oooooo            ",
"   .........oooooo                                                            oooooo            ",
"   .........oooooo                                                            oooooo            ",
"   .........oooooo                                                            oooooo            ",
"            oooooo                                                            oooooo            ",
"            oooooo                                                            oooooo            ",
"            oooooo                                                            oooooo            ",
"            oooooo                                                            oooooo            ",
"            oooooo                                                            oooooo            ",
"            oooooo                                                            oooooo            ",
"            oooooo                                                            oooooo.........   ",
"            oooooo                                                            oooooo.........   ",
"            oooooo                                                            oooooo.........   ",
"            oooooo                                                            oooooo.........   ",
"            oooooo                                                            oooooo.........   ",
"            oooooo                                                            oooooo.........   ",
"            oooooo                                                            oooooo            ",
"            oooooo                                                            oooooo            ",
"            oooooo                                                            oooooo            ",
"......      oooooo                                                            oooooo            ",
"......      oooooo                                                            oooooo            ",
"......      oooooo                                                            oooooo            ",
"......      oooooo                                                   oooooo   oooooo         ...",
"......      oooooo                                                   oooooo   oooooo         ...",
"......      oooooo                                                   oooooo   oooooo         ...",
"            oooooo                                                   oooooo   oooooo         ...",
"            oooooo                                                   oooooo   oooooo         ...",
"            oooooo                                                   oooooo   oooooo         ...",
"            oooooo                                                ooooooooo   oooooo            ",
"            oooooo                                                ooooooooo   oooooo            ",
"            oooooo                                                ooooooooo   oooooo            ",
"         ...oooooo                                                   oooooo   oooooo            ",
"         ...oooooo                                                   oooooo   oooooo            ",
"         ...oooooo                                                   oooooo   oooooo            ",
"         ...oooooo                                                            oooooo            ",
"         ...oooooo                                                            oooooo            ",
"         ...oooooo                                                            oooooo            ",
"            oooooo                                                            oooooo            ",
"            oooooo                                                            oooooo            ",
"            oooooo                                                            oooooo            ",
"            oooooo                                                            oooooo            ",
"            oooooo                                                            oooooo            ",
"            oooooo                                                            oooooo            ",
"            oooooo                                                            oooooo            ",
"            oooooo                                                            oooooo            ",
"            oooooo                                                            oooooo            ",
"            oooooo                                                            oooooo            ",
"            oooooo                                                            oooooo            ",
"            oooooo                                                            oooooo            ",
"            oooooo                                                            oooooo            ",
"            oooooo                                                            oooooo            ",
"            oooooo                                                            oooooo            ",
"            oooooo                                                            oooooo            ",
"            oooooo                                                            oooooo            ",
"            oooooo                                                            oooooo            ",
"            oooooo                                                            oooooo            ",
"            oooooo                                                            oooooo            ",
"            oooooo                                                            oooooo            ",
"            oooooo                                                            oooooo            ",
"            oooooo                                                            oooooo            ",
"            oooooo                                                            oooooo            ",
"         XXXXXXooo                                                            oooooo            ",
"         XXXXXXooo                                                            oooooo            ",
"         XXXXXXooo                                                            oooooo            ",
"         XXXXXXooo                                                            oooooo            ",
"         XXXXXXooo                                                            oooooo            ",
"         XXXXXXooo                                                            oooooo            ",
"   XXXXXXXXXoooooo                                                            oooooo   XXXXXX   ",
"   XXXXXXXXXoooooo                                                            oooooo   XXXXXX   ",
"   XXXXXXXXXoooooo                                                            oooooo   XXXXXX   ",
"   XXXXXXXXXoooooo                                    XXXXXXXXX               oooooo   XXXXXX   ",
"   XXXXXXXXXoooooo                                    XXXXXXXXX               oooooo   XXXXXX   ",
"   XXXXXXXXXoooooo                                    XXXXXXXXX               oooooo   XXXXXX   "
};
