/* XPM */
static char *result[] = {
/* columns rows colors chars-per-pixel */
"96 96 3 1 ",
"  c black",
". c #C52233",
"X c #E72F42",
/* pixels */
"                                                                                                ",
"                                                                                                ",
"                                                                                                ",
"                                                                                                ",
"                                                                                                ",
"                                                                                                ",
"                                                                                                ",
"                                                                                                ",
"                                                                                                ",
"                                             .........                                          ",
"                                             .........                                          ",
"                                             .........                                          ",
"                                       .........                                                ",
"                                       .........                                                ",
"                                       .........                                                ",
"                                    .........                                                   ",
"                                    .........                                                   ",
"                                    .........                                                   ",
"                                 .........                                                      ",
"                                 .........                                                      ",
"                                 .........                                                      ",
"                                 ............                                                   ",
"                                 ............                                                   ",
"                                 ............                                                   ",
"                                 ...............                                                ",
"                                 ...............                                                ",
"                                 ...............                                                ",
"                     ...            .....................                                       ",
"                     ...            .....................                                       ",
"                     ...            .....................                                       ",
"                                 ..............................                                 ",
"                                 ..............................                                 ",
"                                 ..............................                                 ",
"               ...            ....................................                              ",
"               ...            ....................................                              ",
"               ...            ....................................                              ",
"                           ..........................................                           ",
"                           ..........................................                           ",
"                           ..........................................                           ",
"                           .........XXXXXX.........XXXXXX............                           ",
"                           .........XXXXXX.........XXXXXX............                           ",
"                           .........XXXXXX.........XXXXXX............                           ",
"                        ............XXX   .........   XXX...............                        ",
"                        ............XXX   .........   XXX...............                        ",
"                        ............XXX   .........   XXX...............                        ",
"                        ................................................                        ",
"                        ................................................                        ",
"                        ................................................                        ",
"                        ................................................                        ",
"                        ................................................                        ",
"                        ................................................                        ",
"                        ................................................                        ",
"                        ................................................                        ",
"                        ................................................                        ",
"                        ................................................                        ",
"                        ................................................                        ",
"                        ................................................                        ",
"                           ..........................................                           ",
"                           ..........................................                           ",
"                           ..........................................                           ",
"                              ....................................                              ",
"                              ....................................                              ",
"                              ....................................                              ",
"                                 ..............................                                 ",
"                                 ..............................                                 ",
"                                 ..............................                                 ",
"                                       ..................                                       ",
"                                       ..................                                       ",
"                                       ..................                                       ",
"                                                                                                ",
"                                                                                                ",
"                                                                                                ",
"                                                                                                ",
"                                                                                                ",
"                                                                                                ",
"                                                                                                ",
"                                                                                                ",
"                                                                                                ",
"                                                                                                ",
"                                                                                                ",
"                                                                                                ",
"                                                                                                ",
"                                                                                                ",
"                                                                                                ",
"                                                                                                ",
"                                                                                                ",
"                                                                                                ",
"                                                                                                ",
"                                                                                                ",
"                                                                                                ",
"                                                                                                ",
"                                                                                                ",
"                                                                                                ",
"                                                                                                ",
"                                                                                                ",
"                                                                                                "
};
