/* XPM */
static char *result[] = {
/* columns rows colors chars-per-pixel */
"96 96 3 1 ",
"  c black",
". c #C52233",
"X c white",
/* pixels */
"                                                                                                ",
"                                                                                                ",
"                                                                                                ",
"                                                                                                ",
"                                                                                                ",
"                                                                                                ",
"                                                                                                ",
"                                                                                                ",
"                                                                                                ",
"                                                                                                ",
"                                                                                                ",
"                                                                                                ",
"                                                                                                ",
"                                                                                                ",
"                                                                                                ",
"                                                                                                ",
"                                                                                                ",
"                                                                                                ",
"                                                                                                ",
"                                                                                                ",
"                                                                                                ",
"                                                                                                ",
"                                                                                                ",
"                                                                                                ",
"                                                                                                ",
"                                                                                                ",
"                                                                                                ",
"                                                                                                ",
"                                                                                                ",
"                                                                                                ",
"                                                                                                ",
"                                                                                                ",
"                                                                                                ",
"                                                                                                ",
"                                                                                                ",
"                                                                                                ",
"                                                                                                ",
"                                                                                                ",
"                                                                                                ",
"                                                                                                ",
"                                                                                                ",
"                                                                                                ",
"                                                                                                ",
"                                                                                                ",
"                                                                                                ",
"                                                                                                ",
"                                                                                                ",
"                                                                                                ",
"                                                                                                ",
"                                                                                                ",
"                                                                                                ",
"                                                                                                ",
"                                                                                                ",
"                                                                                                ",
"                                                                                                ",
"                                                                                                ",
"                                                                                                ",
"                                                                                                ",
"                                                                                                ",
"                                                                                                ",
"                                                                        XXXXXX                  ",
"                                                                        XXXXXX                  ",
"                                                                        XXXXXX                  ",
"                                                                        XXXXXX                  ",
"                                                                        XXXXXX                  ",
"                                                                        XXXXXX                  ",
"                                                                                    ............",
"                                                                                    ............",
"                                                                                    ............",
"                                                                                    ............",
"                                                                                    ............",
"                                                                                    ............",
"                                                                  XXXXXXXXXXXX      ............",
"                                                                  XXXXXXXXXXXX      ............",
"                                                                  XXXXXXXXXXXX      ............",
"                                                                  XXXXXXXXXXXX      ............",
"                                                                  XXXXXXXXXXXX      ............",
"                                                                  XXXXXXXXXXXX      ............",
"                                                                  XXXXXXXXXXXX                  ",
"                                                                  XXXXXXXXXXXX                  ",
"                                                                  XXXXXXXXXXXX                  ",
"                                                                  XXXXXXXXXXXX                  ",
"                                                                  XXXXXXXXXXXX                  ",
"                                                                  XXXXXXXXXXXX                  ",
"                                                                  XXXXXXXXXXXX            XXXXXX",
"                                                                  XXXXXXXXXXXX            XXXXXX",
"                                                                  XXXXXXXXXXXX            XXXXXX",
"                                                                  XXXXXXXXXXXX            XXXXXX",
"                                                                  XXXXXXXXXXXX            XXXXXX",
"                                                                  XXXXXXXXXXXX            XXXXXX",
"                                                                                          XXXXXX",
"                                                                                          XXXXXX",
"                                                                                          XXXXXX",
"                                                                                          XXXXXX",
"                                                                                          XXXXXX",
"                                                                                          XXXXXX"
};
