/* XPM */
static char *result[] = {
/* columns rows colors chars-per-pixel */
"96 96 3 1 ",
"  c black",
". c #C52233",
"X c white",
/* pixels */
"                                                                                                ",
"                                                                                                ",
"                                                                                                ",
"                                                                                                ",
"                                                                                                ",
"                                                                                                ",
"                                                                                                ",
"                                                                                                ",
"                                                                                                ",
"                                                                                                ",
"                                                                                                ",
"                                                                                                ",
"                                                                                                ",
"                                                                                                ",
"                                                                                                ",
"                                                                                                ",
"                                                                                                ",
"                                                                                                ",
"                                                                                                ",
"                                                                                                ",
"                                                                                                ",
"                                                                                                ",
"                                                                                                ",
"                                                                                                ",
"                                                                                                ",
"                                                                                                ",
"                                                                                                ",
"                                                                                                ",
"                                                                                                ",
"                                                                                                ",
"                                                                                                ",
"                                                                                                ",
"                                                                                                ",
"                                                                                                ",
"                                                                                                ",
"                                                                                                ",
"                                                                                                ",
"                                                                                                ",
"                                                                                                ",
"                                                                                                ",
"                                                                                                ",
"                                                                                                ",
"                                                                                                ",
"                                                                                                ",
"                                                                                                ",
"                                                                                                ",
"                                                                                                ",
"                                                                                                ",
"                        ......      XXXXXXXXXXXX                                                ",
"                        ......      XXXXXXXXXXXX                                                ",
"                        ......      XXXXXXXXXXXX                                                ",
"                        ......      XXXXXXXXXXXX                                                ",
"                        ......      XXXXXXXXXXXX                                                ",
"                        ......      XXXXXXXXXXXX                                                ",
"                                    XXXXXXXXXXXX      ......                                    ",
"                                    XXXXXXXXXXXX      ......                                    ",
"                                    XXXXXXXXXXXX      ......                                    ",
"                                    XXXXXXXXXXXX      ......                                    ",
"                                    XXXXXXXXXXXX      ......                                    ",
"                                    XXXXXXXXXXXX      ......                                    ",
"            XXXXXXXXXXXXXXXXXX                                    XXXXXXXXXXXX                  ",
"            XXXXXXXXXXXXXXXXXX                                    XXXXXXXXXXXX                  ",
"            XXXXXXXXXXXXXXXXXX                                    XXXXXXXXXXXX                  ",
"            XXXXXXXXXXXXXXXXXX                                    XXXXXXXXXXXX                  ",
"            XXXXXXXXXXXXXXXXXX                                    XXXXXXXXXXXX                  ",
"            XXXXXXXXXXXXXXXXXX                                    XXXXXXXXXXXX                  ",
"......      XXXXXXXXXXXXXXXXXX      XXXXXXXXXXXXXXXXXXXXXXXX      XXXXXXXXXXXX      ............",
"......      XXXXXXXXXXXXXXXXXX      XXXXXXXXXXXXXXXXXXXXXXXX      XXXXXXXXXXXX      ............",
"......      XXXXXXXXXXXXXXXXXX      XXXXXXXXXXXXXXXXXXXXXXXX      XXXXXXXXXXXX      ............",
"......      XXXXXXXXXXXXXXXXXX      XXXXXXXXXXXXXXXXXXXXXXXX      XXXXXXXXXXXX      ............",
"......      XXXXXXXXXXXXXXXXXX      XXXXXXXXXXXXXXXXXXXXXXXX      XXXXXXXXXXXX      ............",
"......      XXXXXXXXXXXXXXXXXX      XXXXXXXXXXXXXXXXXXXXXXXX      XXXXXXXXXXXX      ............",
"......      XXXXXXXXXXXXXXXXXX      XXXXXXXXXXXXXXXXXXXXXXXX      XXXXXXXXXXXX      ............",
"......      XXXXXXXXXXXXXXXXXX      XXXXXXXXXXXXXXXXXXXXXXXX      XXXXXXXXXXXX      ............",
"......      XXXXXXXXXXXXXXXXXX      XXXXXXXXXXXXXXXXXXXXXXXX      XXXXXXXXXXXX      ............",
"......      XXXXXXXXXXXXXXXXXX      XXXXXXXXXXXXXXXXXXXXXXXX      XXXXXXXXXXXX      ............",
"......      XXXXXXXXXXXXXXXXXX      XXXXXXXXXXXXXXXXXXXXXXXX      XXXXXXXXXXXX      ............",
"......      XXXXXXXXXXXXXXXXXX      XXXXXXXXXXXXXXXXXXXXXXXX      XXXXXXXXXXXX      ............",
"                                                                                                ",
"                                                                                                ",
"                                                                                                ",
"                                                                                                ",
"                                                                                                ",
"                                                                                                ",
"            XXXXXX            XXXXXXXXXXXX      XXXXXX      XXXXXXXXXXXXXXX         XXXXXX      ",
"            XXXXXX            XXXXXXXXXXXX      XXXXXX      XXXXXXXXXXXXXXX         XXXXXX      ",
"            XXXXXX            XXXXXXXXXXXX      XXXXXX      XXXXXXXXXXXXXXX         XXXXXX      ",
"            XXXXXX            XXXXXXXXXXXX      XXXXXX      XXXXXXXXXXXXXXX         XXXXXX      ",
"            XXXXXX            XXXXXXXXXXXX      XXXXXX      XXXXXXXXXXXXXXX         XXXXXX      ",
"            XXXXXX            XXXXXXXXXXXX      XXXXXX      XXXXXXXXXXXXXXX         XXXXXX      ",
"XXXXXXXXXXXXXXXXXXXXXXXXXXXXXXXXXXXXXXXXXXXXXXXXXXXXXXXXXXXXXXXXXXXXXXXXXXXXXXXXXXXXXXXXXXXXXXXX",
"XXXXXXXXXXXXXXXXXXXXXXXXXXXXXXXXXXXXXXXXXXXXXXXXXXXXXXXXXXXXXXXXXXXXXXXXXXXXXXXXXXXXXXXXXXXXXXXX",
"XXXXXXXXXXXXXXXXXXXXXXXXXXXXXXXXXXXXXXXXXXXXXXXXXXXXXXXXXXXXXXXXXXXXXXXXXXXXXXXXXXXXXXXXXXXXXXXX",
"XXXXXXXXXXXXXXXXXXXXXXXXXXXXXXXXXXXXXXXXXXXXXXXXXXXXXXXXXXXXXXXXXXXXXXXXXXXXXXXXXXXXXXXXXXXXXXXX",
"XXXXXXXXXXXXXXXXXXXXXXXXXXXXXXXXXXXXXXXXXXXXXXXXXXXXXXXXXXXXXXXXXXXXXXXXXXXXXXXXXXXXXXXXXXXXXXXX",
"XXXXXXXXXXXXXXXXXXXXXXXXXXXXXXXXXXXXXXXXXXXXXXXXXXXXXXXXXXXXXXXXXXXXXXXXXXXXXXXXXXXXXXXXXXXXXXXX"
};
