/* XPM */
static char *result[] = {
/* columns rows colors chars-per-pixel */
"96 96 3 1 ",
"  c black",
". c #C52233",
"X c white",
/* pixels */
"XXXXXXXXXXXXXXXXXXXXXXXXXXXXXXXXXXXXXXXXXXXXXXXXXXXXXXXXXXXXXXXXXXXXXXXXXXXXXXXXXXXXXXXXXXXXXXXX",
"XXXXXXXXXXXXXXXXXXXXXXXXXXXXXXXXXXXXXXXXXXXXXXXXXXXXXXXXXXXXXXXXXXXXXXXXXXXXXXXXXXXXXXXXXXXXXXXX",
"XXXXXXXXXXXXXXXXXXXXXXXXXXXXXXXXXXXXXXXXXXXXXXXXXXXXXXXXXXXXXXXXXXXXXXXXXXXXXXXXXXXXXXXXXXXXXXXX",
"XXXXXXXXXXXXXXXXXXXXXXXXXXXXXXXXXXXXXXXXXXXXXXXXXXXXXXXXXXXXXXXXXXXXXXXXXXXXXXXXXXXXXXXXXXXXXXXX",
"XXXXXXXXXXXXXXXXXXXXXXXXXXXXXXXXXXXXXXXXXXXXXXXXXXXXXXXXXXXXXXXXXXXXXXXXXXXXXXXXXXXXXXXXXXXXXXXX",
"XXXXXXXXXXXXXXXXXXXXXXXXXXXXXXXXXXXXXXXXXXXXXXXXXXXXXXXXXXXXXXXXXXXXXXXXXXXXXXXXXXXXXXXXXXXXXXXX",
"XXXXXX      XXXXXX            XXXXXXXXXXXX            XXXXXXXXXXXX                  XXXXXXXXXXXX",
"XXXXXX      XXXXXX            XXXXXXXXXXXX            XXXXXXXXXXXX                  XXXXXXXXXXXX",
"XXXXXX      XXXXXX            XXXXXXXXXXXX            XXXXXXXXXXXX                  XXXXXXXXXXXX",
"XXXXXX      XXXXXX            XXXXXXXXXXXX            XXXXXXXXXXXX                  XXXXXXXXXXXX",
"XXXXXX      XXXXXX            XXXXXXXXXXXX            XXXXXXXXXXXX                  XXXXXXXXXXXX",
"XXXXXX      XXXXXX            XXXXXXXXXXXX            XXXXXXXXXXXX                  XXXXXXXXXXXX",
"XXXXXXXXXXXX                                                                              XXXXXX",
"XXXXXXXXXXXX                                                                              XXXXXX",
"XXXXXXXXXXXX                                                                              XXXXXX",
"XXXXXXXXXXXX                                                                              XXXXXX",
"XXXXXXXXXXXX                                                                              XXXXXX",
"XXXXXXXXXXXX                                                                              XXXXXX",
"XXXXXX            XXXXXXXXXXXXXXXXXX            ..................      XXXXXX            XXXXXX",
"XXXXXX            XXXXXXXXXXXXXXXXXX            ..................      XXXXXX            XXXXXX",
"XXXXXX            XXXXXXXXXXXXXXXXXX            ..................      XXXXXX            XXXXXX",
"XXXXXX            XXXXXXXXXXXXXXXXXX            ..................      XXXXXX            XXXXXX",
"XXXXXX            XXXXXXXXXXXXXXXXXX            ..................      XXXXXX            XXXXXX",
"XXXXXX            XXXXXXXXXXXXXXXXXX            ..................      XXXXXX            XXXXXX",
"XXXXXX            XXXXXXXXXXXXXXXXXX            ..................                  XXXXXXXXXXXX",
"XXXXXX            XXXXXXXXXXXXXXXXXX            ..................                  XXXXXXXXXXXX",
"XXXXXX            XXXXXXXXXXXXXXXXXX            ..................                  XXXXXXXXXXXX",
"XXXXXX            XXXXXXXXXXXXXXXXXX            ..................                  XXXXXXXXXXXX",
"XXXXXX            XXXXXXXXXXXXXXXXXX            ..................                  XXXXXXXXXXXX",
"XXXXXX            XXXXXXXXXXXXXXXXXX            ..................                  XXXXXXXXXXXX",
"XXXXXXXXXXXX      XXXXXXXXXXXXXXXXXX            ..................                  XXXXXXXXXXXX",
"XXXXXXXXXXXX      XXXXXXXXXXXXXXXXXX            ..................                  XXXXXXXXXXXX",
"XXXXXXXXXXXX      XXXXXXXXXXXXXXXXXX            ..................                  XXXXXXXXXXXX",
"XXXXXXXXXXXX      XXXXXXXXXXXXXXXXXX            ..................                  XXXXXXXXXXXX",
"XXXXXXXXXXXX      XXXXXXXXXXXXXXXXXX            ..................                  XXXXXXXXXXXX",
"XXXXXXXXXXXX      XXXXXXXXXXXXXXXXXX            ..................                  XXXXXXXXXXXX",
"XXXXXXXXXXXX                                                                              XXXXXX",
"XXXXXXXXXXXX                                                                              XXXXXX",
"XXXXXXXXXXXX                                                                              XXXXXX",
"XXXXXXXXXXXX                                                                              XXXXXX",
"XXXXXXXXXXXX                                                                              XXXXXX",
"XXXXXXXXXXXX                                                                              XXXXXX",
"XXXXXX            XXXXXXXXXXXX            XXXXXX      XXXXXXXXXXXXXXXXXXXXXXXX            XXXXXX",
"XXXXXX            XXXXXXXXXXXX            XXXXXX      XXXXXXXXXXXXXXXXXXXXXXXX            XXXXXX",
"XXXXXX            XXXXXXXXXXXX            XXXXXX      XXXXXXXXXXXXXXXXXXXXXXXX            XXXXXX",
"XXXXXX            XXXXXXXXXXXX            XXXXXX      XXXXXXXXXXXXXXXXXXXXXXXX            XXXXXX",
"XXXXXX            XXXXXXXXXXXX            XXXXXX      XXXXXXXXXXXXXXXXXXXXXXXX            XXXXXX",
"XXXXXX            XXXXXXXXXXXX            XXXXXX      XXXXXXXXXXXXXXXXXXXXXXXX            XXXXXX",
"XXXXXX            XXXXXXXXXXXX                        XXXXXXXXXXXXXXXXXXXXXXXX            XXXXXX",
"XXXXXX            XXXXXXXXXXXX                        XXXXXXXXXXXXXXXXXXXXXXXX            XXXXXX",
"XXXXXX            XXXXXXXXXXXX                        XXXXXXXXXXXXXXXXXXXXXXXX            XXXXXX",
"XXXXXX            XXXXXXXXXXXX                        XXXXXXXXXXXXXXXXXXXXXXXX            XXXXXX",
"XXXXXX            XXXXXXXXXXXX                        XXXXXXXXXXXXXXXXXXXXXXXX            XXXXXX",
"XXXXXX            XXXXXXXXXXXX                        XXXXXXXXXXXXXXXXXXXXXXXX            XXXXXX",
"XXXXXX                                                XXXXXXXXXXXXXXXXXXXXXXXX      XXXXXXXXXXXX",
"XXXXXX                                                XXXXXXXXXXXXXXXXXXXXXXXX      XXXXXXXXXXXX",
"XXXXXX                                                XXXXXXXXXXXXXXXXXXXXXXXX      XXXXXXXXXXXX",
"XXXXXX                                                XXXXXXXXXXXXXXXXXXXXXXXX      XXXXXXXXXXXX",
"XXXXXX                                                XXXXXXXXXXXXXXXXXXXXXXXX      XXXXXXXXXXXX",
"XXXXXX                                                XXXXXXXXXXXXXXXXXXXXXXXX      XXXXXXXXXXXX",
"XXXXXXXXXXXX      ..............................                                    XXXXXXXXXXXX",
"XXXXXXXXXXXX      ..............................                                    XXXXXXXXXXXX",
"XXXXXXXXXXXX      ..............................                                    XXXXXXXXXXXX",
"XXXXXXXXXXXX      ..............................                                    XXXXXXXXXXXX",
"XXXXXXXXXXXX      ..............................                                    XXXXXXXXXXXX",
"XXXXXXXXXXXX      ..............................                                    XXXXXXXXXXXX",
"XXXXXXXXXXXX      ..............................                  XXXXXXXXXXXX            XXXXXX",
"XXXXXXXXXXXX      ..............................                  XXXXXXXXXXXX            XXXXXX",
"XXXXXXXXXXXX      ..............................                  XXXXXXXXXXXX            XXXXXX",
"XXXXXXXXXXXX      ..............................                  XXXXXXXXXXXX            XXXXXX",
"XXXXXXXXXXXX      ..............................                  XXXXXXXXXXXX            XXXXXX",
"XXXXXXXXXXXX      ..............................                  XXXXXXXXXXXX            XXXXXX",
"XXXXXX            ..............................      XXXXXX      XXXXXXXXXXXX            XXXXXX",
"XXXXXX            ..............................      XXXXXX      XXXXXXXXXXXX            XXXXXX",
"XXXXXX            ..............................      XXXXXX      XXXXXXXXXXXX            XXXXXX",
"XXXXXX            ..............................      XXXXXX      XXXXXXXXXXXX            XXXXXX",
"XXXXXX            ..............................      XXXXXX      XXXXXXXXXXXX            XXXXXX",
"XXXXXX            ..............................      XXXXXX      XXXXXXXXXXXX            XXXXXX",
"XXXXXX                                                                              XXXXXXXXXXXX",
"XXXXXX                                                                              XXXXXXXXXXXX",
"XXXXXX                                                                              XXXXXXXXXXXX",
"XXXXXX                                                                              XXXXXXXXXXXX",
"XXXXXX                                                                              XXXXXXXXXXXX",
"XXXXXX                                                                              XXXXXXXXXXXX",
"XXXXXXXXXXXX            XXXXXXXXXXXX                        XXXXXXXXXXXX      XXXXXX      XXXXXX",
"XXXXXXXXXXXX            XXXXXXXXXXXX                        XXXXXXXXXXXX      XXXXXX      XXXXXX",
"XXXXXXXXXXXX            XXXXXXXXXXXX                        XXXXXXXXXXXX      XXXXXX      XXXXXX",
"XXXXXXXXXXXX            XXXXXXXXXXXX                        XXXXXXXXXXXX      XXXXXX      XXXXXX",
"XXXXXXXXXXXX            XXXXXXXXXXXX                        XXXXXXXXXXXX      XXXXXX      XXXXXX",
"XXXXXXXXXXXX            XXXXXXXXXXXX                        XXXXXXXXXXXX      XXXXXX      XXXXXX",
"XXXXXXXXXXXXXXXXXXXXXXXXXXXXXXXXXXXXXXXXXXXXXXXXXXXXXXXXXXXXXXXXXXXXXXXXXXXXXXXXXXXXXXXXXXXXXXXX",
"XXXXXXXXXXXXXXXXXXXXXXXXXXXXXXXXXXXXXXXXXXXXXXXXXXXXXXXXXXXXXXXXXXXXXXXXXXXXXXXXXXXXXXXXXXXXXXXX",
"XXXXXXXXXXXXXXXXXXXXXXXXXXXXXXXXXXXXXXXXXXXXXXXXXXXXXXXXXXXXXXXXXXXXXXXXXXXXXXXXXXXXXXXXXXXXXXXX",
"XXXXXXXXXXXXXXXXXXXXXXXXXXXXXXXXXXXXXXXXXXXXXXXXXXXXXXXXXXXXXXXXXXXXXXXXXXXXXXXXXXXXXXXXXXXXXXXX",
"XXXXXXXXXXXXXXXXXXXXXXXXXXXXXXXXXXXXXXXXXXXXXXXXXXXXXXXXXXXXXXXXXXXXXXXXXXXXXXXXXXXXXXXXXXXXXXXX",
"XXXXXXXXXXXXXXXXXXXXXXXXXXXXXXXXXXXXXXXXXXXXXXXXXXXXXXXXXXXXXXXXXXXXXXXXXXXXXXXXXXXXXXXXXXXXXXXX"
};
