/* XPM */
static char *result[] = {
/* columns rows colors chars-per-pixel */
"96 96 3 1 ",
"  c black",
". c #C52233",
"X c white",
/* pixels */
"XXXXXXXXXXXXXXXXXXXXXXXXXXXXXXXXXXXXXXXXXXXXXXXXXXXXXXXXXXXXXXXXXXXXXXXXXXXXXXXXXXXXXXXXXXXXXXXX",
"XXXXXXXXXXXXXXXXXXXXXXXXXXXXXXXXXXXXXXXXXXXXXXXXXXXXXXXXXXXXXXXXXXXXXXXXXXXXXXXXXXXXXXXXXXXXXXXX",
"XXXXXXXXXXXXXXXXXXXXXXXXXXXXXXXXXXXXXXXXXXXXXXXXXXXXXXXXXXXXXXXXXXXXXXXXXXXXXXXXXXXXXXXXXXXXXXXX",
"XXXXXXXXXXXXXXXXXXXXXXXXXXXXXXXXXXXXXXXXXXXXXXXXXXXXXXXXXXXXXXXXXXXXXXXXXXXXXXXXXXXXXXXXXXXXXXXX",
"XXXXXXXXXXXXXXXXXXXXXXXXXXXXXXXXXXXXXXXXXXXXXXXXXXXXXXXXXXXXXXXXXXXXXXXXXXXXXXXXXXXXXXXXXXXXXXXX",
"XXXXXXXXXXXXXXXXXXXXXXXXXXXXXXXXXXXXXXXXXXXXXXXXXXXXXXXXXXXXXXXXXXXXXXXXXXXXXXXXXXXXXXXXXXXXXXXX",
"      XXXXXX         XXXXXXXXXXXXXXX      XXXXXX      XXXXXXXXXXXX            XXXXXX            ",
"      XXXXXX         XXXXXXXXXXXXXXX      XXXXXX      XXXXXXXXXXXX            XXXXXX            ",
"      XXXXXX         XXXXXXXXXXXXXXX      XXXXXX      XXXXXXXXXXXX            XXXXXX            ",
"      XXXXXX         XXXXXXXXXXXXXXX      XXXXXX      XXXXXXXXXXXX            XXXXXX            ",
"      XXXXXX         XXXXXXXXXXXXXXX      XXXXXX      XXXXXXXXXXXX            XXXXXX            ",
"      XXXXXX         XXXXXXXXXXXXXXX      XXXXXX      XXXXXXXXXXXX            XXXXXX            ",
"                                                                                                ",
"                                                                                                ",
"                                                                                                ",
"                                                                                                ",
"                                                                                                ",
"                                                                                                ",
"............      XXXXXXXXXXXX      XXXXXXXXXXXXXXXXXXXXXXXX      XXXXXXXXXXXXXXXXXX      ......",
"............      XXXXXXXXXXXX      XXXXXXXXXXXXXXXXXXXXXXXX      XXXXXXXXXXXXXXXXXX      ......",
"............      XXXXXXXXXXXX      XXXXXXXXXXXXXXXXXXXXXXXX      XXXXXXXXXXXXXXXXXX      ......",
"............      XXXXXXXXXXXX      XXXXXXXXXXXXXXXXXXXXXXXX      XXXXXXXXXXXXXXXXXX      ......",
"............      XXXXXXXXXXXX      XXXXXXXXXXXXXXXXXXXXXXXX      XXXXXXXXXXXXXXXXXX      ......",
"............      XXXXXXXXXXXX      XXXXXXXXXXXXXXXXXXXXXXXX      XXXXXXXXXXXXXXXXXX      ......",
"............      XXXXXXXXXXXX      XXXXXXXXXXXXXXXXXXXXXXXX      XXXXXXXXXXXXXXXXXX      ......",
"............      XXXXXXXXXXXX      XXXXXXXXXXXXXXXXXXXXXXXX      XXXXXXXXXXXXXXXXXX      ......",
"............      XXXXXXXXXXXX      XXXXXXXXXXXXXXXXXXXXXXXX      XXXXXXXXXXXXXXXXXX      ......",
"............      XXXXXXXXXXXX      XXXXXXXXXXXXXXXXXXXXXXXX      XXXXXXXXXXXXXXXXXX      ......",
"............      XXXXXXXXXXXX      XXXXXXXXXXXXXXXXXXXXXXXX      XXXXXXXXXXXXXXXXXX      ......",
"............      XXXXXXXXXXXX      XXXXXXXXXXXXXXXXXXXXXXXX      XXXXXXXXXXXXXXXXXX      ......",
"                  XXXXXXXXXXXX                                    XXXXXXXXXXXXXXXXXX            ",
"                  XXXXXXXXXXXX                                    XXXXXXXXXXXXXXXXXX            ",
"                  XXXXXXXXXXXX                                    XXXXXXXXXXXXXXXXXX            ",
"                  XXXXXXXXXXXX                                    XXXXXXXXXXXXXXXXXX            ",
"                  XXXXXXXXXXXX                                    XXXXXXXXXXXXXXXXXX            ",
"                  XXXXXXXXXXXX                                    XXXXXXXXXXXXXXXXXX            ",
"                                    ......      XXXXXXXXXXXX                                    ",
"                                    ......      XXXXXXXXXXXX                                    ",
"                                    ......      XXXXXXXXXXXX                                    ",
"                                    ......      XXXXXXXXXXXX                                    ",
"                                    ......      XXXXXXXXXXXX                                    ",
"                                    ......      XXXXXXXXXXXX                                    ",
"                                                XXXXXXXXXXXX      ......                        ",
"                                                XXXXXXXXXXXX      ......                        ",
"                                                XXXXXXXXXXXX      ......                        ",
"                                                XXXXXXXXXXXX      ......                        ",
"                                                XXXXXXXXXXXX      ......                        ",
"                                                XXXXXXXXXXXX      ......                        ",
"                                                                                                ",
"                                                                                                ",
"                                                                                                ",
"                                                                                                ",
"                                                                                                ",
"                                                                                                ",
"                                                                                                ",
"                                                                                                ",
"                                                                                                ",
"                                                                                                ",
"                                                                                                ",
"                                                                                                ",
"                                                                                                ",
"                                                                                                ",
"                                                                                                ",
"                                                                                                ",
"                                                                                                ",
"                                                                                                ",
"                                                                                                ",
"                                                                                                ",
"                                                                                                ",
"                                                                                                ",
"                                                                                                ",
"                                                                                                ",
"                                                                                                ",
"                                                                                                ",
"                                                                                                ",
"                                                                                                ",
"                                                                                                ",
"                                                                                                ",
"                                                                                                ",
"                                                                                                ",
"                                                                                                ",
"                                                                                                ",
"                                                                                                ",
"                                                                                                ",
"                                                                                                ",
"                                                                                                ",
"                                                                                                ",
"                                                                                                ",
"                                                                                                ",
"                                                                                                ",
"                                                                                                ",
"                                                                                                ",
"                                                                                                ",
"                                                                                                ",
"                                                                                                ",
"                                                                                                "
};
