/* XPM */
static char *result[] = {
/* columns rows colors chars-per-pixel */
"96 96 3 1 ",
"  c black",
". c #C52233",
"X c white",
/* pixels */
"                                                                  ............      XXXXXXXXXXXX",
"                                                                  ............      XXXXXXXXXXXX",
"                                                                  ............      XXXXXXXXXXXX",
"                                                                  ............      XXXXXXXXXXXX",
"                                                                  ............      XXXXXXXXXXXX",
"                                                                  ............      XXXXXXXXXXXX",
"                                                                  ............                  ",
"                                                                  ............                  ",
"                                                                  ............                  ",
"                                                                  ............                  ",
"                                                                  ............                  ",
"                                                                  ............                  ",
"                                                                                                ",
"                                                                                                ",
"                                                                                                ",
"                                                                                                ",
"                                                                                                ",
"                                                                                                ",
"                                                            XXXXXX      XXXXXXXXXXXXXXXXXX      ",
"                                                            XXXXXX      XXXXXXXXXXXXXXXXXX      ",
"                                                            XXXXXX      XXXXXXXXXXXXXXXXXX      ",
"                                                            XXXXXX      XXXXXXXXXXXXXXXXXX      ",
"                                                            XXXXXX      XXXXXXXXXXXXXXXXXX      ",
"                                                            XXXXXX      XXXXXXXXXXXXXXXXXX      ",
"                                                                        XXXXXXXXXXXXXXXXXX      ",
"                                                                        XXXXXXXXXXXXXXXXXX      ",
"                                                                        XXXXXXXXXXXXXXXXXX      ",
"                                                                        XXXXXXXXXXXXXXXXXX      ",
"                                                                        XXXXXXXXXXXXXXXXXX      ",
"                                                                        XXXXXXXXXXXXXXXXXX      ",
"                                                                                                ",
"                                                                                                ",
"                                                                                                ",
"                                                                                                ",
"                                                                                                ",
"                                                                                                ",
"                                                                                                ",
"                                                                                                ",
"                                                                                                ",
"                                                                                                ",
"                                                                                                ",
"                                                                                                ",
"                                                                                                ",
"                                                                                                ",
"                                                                                                ",
"                                                                                                ",
"                                                                                                ",
"                                                                                                ",
"                                                                                                ",
"                                                                                                ",
"                                                                                                ",
"                                                                                                ",
"                                                                                                ",
"                                                                                                ",
"                                                                                                ",
"                                                                                                ",
"                                                                                                ",
"                                                                                                ",
"                                                                                                ",
"                                                                                                ",
"                                                                                                ",
"                                                                                                ",
"                                                                                                ",
"                                                                                                ",
"                                                                                                ",
"                                                                                                ",
"                                                                                                ",
"                                                                                                ",
"                                                                                                ",
"                                                                                                ",
"                                                                                                ",
"                                                                                                ",
"                                                                                                ",
"                                                                                                ",
"                                                                                                ",
"                                                                                                ",
"                                                                                                ",
"                                                                                                ",
"                                                                                                ",
"                                                                                                ",
"                                                                                                ",
"                                                                                                ",
"                                                                                                ",
"                                                                                                ",
"                                                                                                ",
"                                                                                                ",
"                                                                                                ",
"                                                                                                ",
"                                                                                                ",
"                                                                                                ",
"                                                                                                ",
"                                                                                                ",
"                                                                                                ",
"                                                                                                ",
"                                                                                                ",
"                                                                                                "
};
